<svg width="625" height="410" viewBox="0 0 625 410" fill="none" xmlns="http://www.w3.org/2000/svg">
<g clip-path="url(#clip0_25_2)">
<rect width="625" height="410" fill="#214066"/>
<rect width="625" height="410" fill="#214066"/>
<path fill-rule="evenodd" clip-rule="evenodd" d="M229.594 119.48C215.01 107.774 181.736 98.3475 178.868 98.1737C176 97.5 176 98 176 95C176 95 174.585 54.832 173.166 52.467C167.166 42.4669 159.166 37.467 159.166 52.467L158.59 95C158.5 98 158.59 97.5 156 98C144.27 98.9946 135.305 101.882 124.55 106.924C107.618 114.862 93.2517 127.389 83.0816 143.082C72.9115 158.775 67.3455 177.006 67.0156 195.703C66.6856 214.4 71.6051 232.815 81.2152 248.857C90.8253 264.899 104.741 277.925 121.382 286.456C132.611 292.212 144.777 295.766 157.228 296.989C157.516 330.297 158.321 354.202 160 357C166 367 174.166 371.967 174.166 357.467L174.104 297.215C174.522 297.185 174.94 297.152 175.358 297.117C193.993 295.554 211.816 288.798 226.803 277.614C240 269.5 231 258 217.833 265.592C205.093 275.098 189.944 280.841 174.104 282.17L176 205.5C176 203.5 177 202.5 179 202.467H212.166C227 202 227 188 212.166 187.467L179 187.5C177 187.5 176 186.5 176.01 184.5L175.972 112.942C176.344 112.981 176.716 113.023 177.088 113.068C192.871 114.954 207.808 121.228 220.205 131.178C234 140 242.5 129 229.594 119.48ZM94.0829 241.149C102.251 254.785 114.08 265.857 128.225 273.108C137.3 277.76 147.005 280.709 157.134 281.893C157.134 281.893 157.41 236.518 157.5 205.5C157.5 203.5 156.5 202.5 154.5 202.467C143.101 202.467 151.756 202.467 137.166 202.467C121.5 202.467 121 187.467 137.166 187.467C153.332 187.467 154 187.5 154 187.5C156 187.5 157.5 186 157.531 184L158.345 112.909C148.884 113.877 139.608 116.431 130.917 120.506C116.526 127.253 104.314 137.901 95.6693 151.24C87.0248 164.579 82.2937 180.075 82.0132 195.968C81.7328 211.86 85.9143 227.513 94.0829 241.149Z" fill="#D1A33B"/>
<path d="M265.992 229.379L265.97 249.635C265.97 269.088 275.96 268.486 275.96 249.635V228.777C275.96 217.264 275.982 201.703 275.96 199.296V159.388C275.649 141.537 266.325 141.537 265.97 159.388L265.992 229.379Z" fill="#D1A33B"/>
<path d="M291.242 170.254C291.223 171.348 291.203 172.407 291.184 173.433C291.174 173.872 291.164 174.321 291.154 174.78C291.154 175.239 291.15 175.693 291.14 176.143C291.14 176.582 291.135 177.007 291.125 177.417C291.125 177.817 291.125 178.174 291.125 178.486C291.125 179.141 291.13 179.932 291.14 180.859C291.15 181.787 291.159 182.739 291.169 183.716C291.189 184.692 291.213 185.63 291.242 186.528C291.272 187.427 291.306 188.174 291.345 188.77C291.482 188.789 291.662 188.813 291.887 188.843C292.121 188.862 292.365 188.882 292.619 188.901C292.873 188.911 293.122 188.921 293.366 188.931C293.611 188.94 293.816 188.945 293.982 188.945C294.665 188.945 295.363 188.901 296.076 188.813C296.799 188.716 297.492 188.54 298.156 188.286C298.83 188.032 299.46 187.686 300.046 187.246C300.642 186.797 301.159 186.221 301.599 185.518C302.048 184.814 302.4 183.97 302.653 182.983C302.907 181.987 303.034 180.815 303.034 179.468C303.034 177.974 302.854 176.646 302.492 175.483C302.131 174.312 301.599 173.325 300.896 172.524C300.202 171.724 299.338 171.118 298.303 170.708C297.278 170.288 296.096 170.078 294.758 170.078C294.494 170.078 294.196 170.088 293.864 170.107C293.532 170.117 293.2 170.132 292.868 170.151C292.546 170.161 292.238 170.181 291.945 170.21C291.662 170.229 291.428 170.244 291.242 170.254ZM288.034 168.936C288.259 168.945 288.469 168.955 288.664 168.965C288.83 168.975 289.001 168.984 289.177 168.994C289.353 168.994 289.494 168.994 289.602 168.994C289.787 168.994 290.095 168.984 290.525 168.965C290.964 168.945 291.462 168.926 292.019 168.906C292.575 168.887 293.152 168.867 293.747 168.848C294.353 168.828 294.919 168.818 295.446 168.818C296.862 168.818 298.21 168.994 299.489 169.346C300.769 169.697 301.892 170.273 302.859 171.074C303.825 171.875 304.592 172.925 305.158 174.224C305.725 175.522 306.008 177.119 306.008 179.014C306.008 180.371 305.857 181.592 305.554 182.676C305.261 183.76 304.846 184.717 304.309 185.547C303.772 186.377 303.127 187.09 302.375 187.686C301.633 188.271 300.808 188.755 299.9 189.136C299.001 189.517 298.039 189.795 297.014 189.971C295.988 190.146 294.929 190.234 293.835 190.234C293.445 190.234 292.971 190.22 292.414 190.19C291.867 190.171 291.316 190.146 290.759 190.117C290.202 190.088 289.675 190.059 289.177 190.029C288.689 190.01 288.308 190 288.034 190V189.941C288.093 189.736 288.147 189.482 288.195 189.18C288.254 188.877 288.303 188.501 288.342 188.052C288.381 187.603 288.41 187.07 288.43 186.455C288.449 185.83 288.459 185.103 288.459 184.272V174.736C288.459 173.906 288.449 173.179 288.43 172.554C288.41 171.919 288.381 171.377 288.342 170.928C288.303 170.469 288.254 170.083 288.195 169.771C288.147 169.458 288.093 169.199 288.034 168.994V168.936Z" fill="white"/>
<path d="M309.611 180.728C309.611 179.897 309.597 179.175 309.568 178.56C309.548 177.935 309.519 177.397 309.48 176.948C309.45 176.499 309.406 176.123 309.348 175.82C309.299 175.518 309.245 175.264 309.187 175.059V175H312.57V175.059C312.492 175.283 312.424 175.557 312.365 175.879C312.317 176.201 312.278 176.616 312.248 177.124C312.61 176.821 312.986 176.523 313.376 176.23C313.767 175.938 314.167 175.679 314.577 175.454C314.987 175.229 315.403 175.049 315.822 174.912C316.252 174.775 316.682 174.707 317.111 174.707C317.375 174.707 317.605 174.722 317.8 174.751C317.995 174.771 318.171 174.805 318.327 174.854C318.484 174.893 318.625 174.941 318.752 175C318.879 175.049 319.001 175.098 319.118 175.146L318.401 177.944L318.152 177.886C318.034 177.456 317.815 177.114 317.492 176.86C317.17 176.597 316.731 176.465 316.174 176.465C315.871 176.465 315.554 176.519 315.222 176.626C314.89 176.733 314.553 176.885 314.211 177.08C313.869 177.266 313.528 177.485 313.186 177.739C312.844 177.983 312.512 178.242 312.19 178.516C312.17 178.799 312.16 179.106 312.16 179.438C312.16 179.771 312.16 180.122 312.16 180.493V184.272C312.16 185.103 312.17 185.83 312.19 186.455C312.209 187.07 312.238 187.603 312.278 188.052C312.317 188.501 312.361 188.877 312.409 189.18C312.458 189.482 312.512 189.736 312.57 189.941V190H309.187V189.941C309.245 189.736 309.299 189.482 309.348 189.18C309.406 188.877 309.45 188.501 309.48 188.052C309.519 187.603 309.548 187.07 309.568 186.455C309.597 185.83 309.611 185.103 309.611 184.272V180.728Z" fill="white"/>
<path d="M320.627 188.711C320.627 188.496 320.666 188.296 320.744 188.11C320.832 187.915 320.945 187.749 321.081 187.612C321.228 187.466 321.394 187.354 321.579 187.275C321.775 187.188 321.98 187.144 322.195 187.144C322.419 187.144 322.624 187.188 322.81 187.275C323.005 187.354 323.171 187.466 323.308 187.612C323.454 187.749 323.567 187.915 323.645 188.11C323.733 188.296 323.777 188.496 323.777 188.711C323.777 189.16 323.625 189.536 323.322 189.839C323.02 190.142 322.644 190.293 322.195 190.293C321.98 190.293 321.775 190.249 321.579 190.161C321.394 190.083 321.228 189.976 321.081 189.839C320.945 189.692 320.832 189.526 320.744 189.341C320.666 189.146 320.627 188.936 320.627 188.711Z" fill="white"/>
<path d="M353.366 172.217L353.235 172.275C352.473 171.572 351.555 171.011 350.481 170.591C349.416 170.171 348.244 169.961 346.965 169.961C345.735 169.961 344.607 170.156 343.581 170.547C342.556 170.928 341.672 171.484 340.93 172.217C340.197 172.949 339.626 173.848 339.216 174.912C338.806 175.977 338.601 177.188 338.601 178.545C338.601 180.039 338.796 181.436 339.187 182.734C339.577 184.023 340.158 185.142 340.93 186.089C341.701 187.036 342.663 187.783 343.816 188.33C344.978 188.867 346.33 189.136 347.873 189.136C348.43 189.136 348.986 189.077 349.543 188.96C350.1 188.843 350.632 188.672 351.14 188.447C351.657 188.213 352.141 187.935 352.59 187.612C353.049 187.28 353.464 186.904 353.835 186.484L353.996 186.587L352.824 189.575C352.092 189.858 351.281 190.073 350.393 190.22C349.514 190.376 348.625 190.454 347.727 190.454C345.92 190.454 344.265 190.195 342.761 189.678C341.267 189.15 339.978 188.408 338.894 187.451C337.82 186.494 336.98 185.347 336.374 184.009C335.778 182.661 335.481 181.167 335.481 179.526C335.481 178.599 335.598 177.686 335.832 176.787C336.076 175.889 336.428 175.034 336.887 174.224C337.346 173.413 337.912 172.671 338.586 171.997C339.26 171.313 340.027 170.723 340.886 170.225C341.755 169.727 342.707 169.341 343.742 169.067C344.787 168.784 345.915 168.643 347.126 168.643C349.011 168.643 350.759 168.931 352.37 169.507L353.366 172.217Z" fill="white"/>
<path d="M371.501 190V189.941C371.521 189.893 371.535 189.819 371.545 189.722C371.555 189.624 371.56 189.536 371.56 189.458C371.56 189.155 371.516 188.823 371.428 188.462C371.35 188.091 371.194 187.632 370.959 187.085L369.187 183.101C368.64 183.081 367.912 183.071 367.004 183.071C366.096 183.071 365.114 183.071 364.06 183.071C363.288 183.071 362.541 183.071 361.819 183.071C361.106 183.071 360.461 183.081 359.885 183.101L358.2 186.968C358.054 187.329 357.898 187.725 357.732 188.154C357.566 188.584 357.483 189.019 357.483 189.458C357.483 189.585 357.492 189.692 357.512 189.78C357.531 189.858 357.551 189.912 357.57 189.941V190H354.582V189.941C354.758 189.756 354.978 189.429 355.241 188.96C355.505 188.481 355.793 187.886 356.106 187.173L364.499 168.555H365.671L373.625 186.455C373.811 186.875 374.001 187.285 374.196 187.686C374.402 188.076 374.592 188.428 374.768 188.74C374.944 189.053 375.1 189.316 375.236 189.531C375.373 189.746 375.466 189.883 375.515 189.941V190H371.501ZM362.009 181.812C362.575 181.812 363.156 181.812 363.752 181.812C364.348 181.802 364.929 181.797 365.495 181.797C366.071 181.787 366.623 181.782 367.151 181.782C367.678 181.772 368.156 181.763 368.586 181.753L364.47 172.451L360.427 181.812H362.009ZM365.041 166.621C364.387 166.621 363.811 166.509 363.313 166.284C362.824 166.06 362.395 165.747 362.024 165.347C361.653 164.937 361.335 164.453 361.071 163.896C360.818 163.33 360.603 162.71 360.427 162.036L360.998 161.89C361.106 162.183 361.242 162.495 361.408 162.827C361.584 163.149 361.823 163.452 362.126 163.735C362.429 164.009 362.815 164.238 363.283 164.424C363.752 164.609 364.338 164.702 365.041 164.702C365.744 164.702 366.33 164.609 366.799 164.424C367.268 164.238 367.653 164.009 367.956 163.735C368.259 163.452 368.493 163.149 368.659 162.827C368.835 162.495 368.977 162.183 369.084 161.89L369.655 162.036C369.48 162.71 369.26 163.33 368.996 163.896C368.742 164.453 368.43 164.937 368.059 165.347C367.688 165.747 367.253 166.06 366.755 166.284C366.267 166.509 365.695 166.621 365.041 166.621Z" fill="white"/>
<path d="M380.422 188.711C381.574 188.711 382.634 188.662 383.601 188.564C384.568 188.467 385.412 188.354 386.135 188.228C386.975 188.091 387.741 187.93 388.435 187.744L388.01 190.117C387.893 190.107 387.717 190.098 387.483 190.088C387.248 190.078 386.985 190.068 386.692 190.059C386.408 190.049 386.106 190.039 385.783 190.029C385.471 190.029 385.173 190.024 384.89 190.015C384.607 190.015 384.353 190.01 384.128 190C383.913 190 383.757 190 383.659 190H377.331V189.941C377.39 189.736 377.444 189.482 377.492 189.18C377.551 188.877 377.6 188.501 377.639 188.052C377.678 187.603 377.707 187.07 377.727 186.455C377.746 185.83 377.756 185.103 377.756 184.272V174.736C377.756 173.906 377.746 173.184 377.727 172.568C377.707 171.943 377.678 171.406 377.639 170.957C377.6 170.498 377.551 170.117 377.492 169.814C377.444 169.512 377.39 169.258 377.331 169.053V168.994H380.847V169.053C380.788 169.258 380.73 169.512 380.671 169.814C380.622 170.117 380.578 170.498 380.539 170.957C380.51 171.406 380.481 171.943 380.451 172.568C380.432 173.184 380.422 173.906 380.422 174.736V188.711Z" fill="white"/>
<path d="M391.262 189.941C391.32 189.736 391.374 189.482 391.423 189.18C391.472 188.877 391.516 188.501 391.555 188.052C391.594 187.603 391.623 187.07 391.643 186.455C391.662 185.83 391.672 185.103 391.672 184.272V174.736C391.672 173.906 391.662 173.184 391.643 172.568C391.623 171.943 391.594 171.406 391.555 170.957C391.516 170.498 391.472 170.117 391.423 169.814C391.374 169.512 391.32 169.258 391.262 169.053V168.994H394.763V169.053C394.704 169.258 394.646 169.512 394.587 169.814C394.538 170.117 394.494 170.498 394.455 170.957C394.426 171.406 394.397 171.943 394.367 172.568C394.348 173.184 394.338 173.906 394.338 174.736V184.272C394.338 185.103 394.348 185.83 394.367 186.455C394.397 187.07 394.426 187.603 394.455 188.052C394.494 188.501 394.538 188.877 394.587 189.18C394.646 189.482 394.704 189.736 394.763 189.941V190H391.262V189.941Z" fill="white"/>
<path d="M399.919 168.994L415.007 185.049V174.736C415.007 173.906 414.997 173.184 414.978 172.568C414.958 171.943 414.929 171.406 414.89 170.957C414.851 170.498 414.802 170.117 414.743 169.814C414.695 169.512 414.641 169.258 414.582 169.053V168.994H417.19V169.053C417.131 169.258 417.077 169.512 417.028 169.814C416.98 170.117 416.936 170.498 416.897 170.957C416.858 171.406 416.828 171.943 416.809 172.568C416.789 173.184 416.779 173.906 416.779 174.736V190.293H416.267L401.179 174.253V184.272C401.179 185.103 401.189 185.83 401.208 186.455C401.228 187.07 401.257 187.603 401.296 188.052C401.335 188.501 401.379 188.877 401.428 189.18C401.477 189.482 401.53 189.736 401.589 189.941V190H398.982V189.941C399.04 189.736 399.094 189.482 399.143 189.18C399.201 188.877 399.25 188.501 399.289 188.052C399.328 187.603 399.358 187.07 399.377 186.455C399.397 185.83 399.406 185.103 399.406 184.272V174.736C399.406 173.906 399.397 173.184 399.377 172.568C399.358 171.943 399.328 171.406 399.289 170.957C399.25 170.498 399.201 170.117 399.143 169.814C399.094 169.512 399.04 169.258 398.982 169.053V168.994H399.919Z" fill="white"/>
<path d="M435.793 170.283C434.641 170.283 433.601 170.337 432.673 170.444C431.745 170.542 430.945 170.649 430.271 170.767C429.489 170.913 428.791 171.074 428.176 171.25L428.601 168.877C428.718 168.887 428.894 168.896 429.128 168.906C429.362 168.916 429.621 168.926 429.904 168.936C430.197 168.945 430.5 168.955 430.813 168.965C431.135 168.965 431.438 168.97 431.721 168.979C432.004 168.979 432.253 168.984 432.468 168.994C432.693 168.994 432.854 168.994 432.951 168.994H441.316C441.413 168.994 441.57 168.994 441.784 168.994C442.009 168.984 442.263 168.979 442.546 168.979C442.829 168.97 443.127 168.965 443.44 168.965C443.762 168.955 444.065 168.945 444.348 168.936C444.641 168.926 444.904 168.916 445.139 168.906C445.373 168.896 445.549 168.887 445.666 168.877L446.091 171.25C445.466 171.074 444.763 170.913 443.982 170.767C443.308 170.649 442.507 170.542 441.579 170.444C440.652 170.337 439.611 170.283 438.459 170.283V184.272C438.459 185.103 438.469 185.83 438.488 186.455C438.518 187.07 438.547 187.603 438.576 188.052C438.615 188.501 438.659 188.877 438.708 189.18C438.767 189.482 438.825 189.736 438.884 189.941V190H435.383V189.941C435.442 189.736 435.495 189.482 435.544 189.18C435.593 188.877 435.637 188.501 435.676 188.052C435.715 187.603 435.744 187.07 435.764 186.455C435.783 185.83 435.793 185.103 435.793 184.272V170.283Z" fill="white"/>
<path d="M457.165 168.643C458.796 168.643 460.3 168.911 461.677 169.448C463.064 169.976 464.26 170.723 465.266 171.689C466.272 172.646 467.058 173.799 467.624 175.146C468.191 176.494 468.474 177.983 468.474 179.614C468.474 180.542 468.366 181.455 468.152 182.354C467.937 183.252 467.619 184.102 467.199 184.902C466.789 185.703 466.281 186.445 465.676 187.129C465.07 187.803 464.377 188.389 463.596 188.887C462.824 189.375 461.97 189.756 461.032 190.029C460.095 190.312 459.084 190.454 458 190.454C456.369 190.454 454.861 190.195 453.474 189.678C452.097 189.15 450.905 188.408 449.9 187.451C448.894 186.494 448.108 185.347 447.541 184.009C446.975 182.661 446.692 181.167 446.692 179.526C446.692 178.599 446.799 177.686 447.014 176.787C447.229 175.889 447.541 175.034 447.951 174.224C448.371 173.413 448.879 172.671 449.475 171.997C450.08 171.313 450.769 170.723 451.54 170.225C452.321 169.727 453.181 169.341 454.118 169.067C455.066 168.784 456.081 168.643 457.165 168.643ZM458 189.136C459.084 189.136 460.075 188.94 460.974 188.55C461.872 188.159 462.644 187.593 463.288 186.851C463.943 186.108 464.45 185.205 464.812 184.141C465.173 183.066 465.354 181.851 465.354 180.493C465.354 178.989 465.178 177.598 464.826 176.318C464.485 175.029 463.972 173.916 463.288 172.979C462.605 172.031 461.75 171.294 460.725 170.767C459.709 170.229 458.523 169.961 457.165 169.961C456.081 169.961 455.09 170.156 454.192 170.547C453.293 170.928 452.517 171.484 451.862 172.217C451.218 172.949 450.715 173.848 450.354 174.912C449.992 175.977 449.812 177.188 449.812 178.545C449.812 180.039 449.983 181.436 450.324 182.734C450.666 184.023 451.179 185.142 451.862 186.089C452.546 187.036 453.401 187.783 454.426 188.33C455.451 188.867 456.643 189.136 458 189.136Z" fill="white"/>
<path d="M474.992 170.254C474.973 171.348 474.953 172.407 474.934 173.433C474.924 173.872 474.914 174.321 474.904 174.78C474.904 175.239 474.9 175.693 474.89 176.143C474.89 176.582 474.885 177.007 474.875 177.417C474.875 177.817 474.875 178.174 474.875 178.486C474.875 179.141 474.88 179.932 474.89 180.859C474.9 181.787 474.909 182.739 474.919 183.716C474.939 184.692 474.963 185.63 474.992 186.528C475.022 187.427 475.056 188.174 475.095 188.77C475.232 188.789 475.412 188.813 475.637 188.843C475.871 188.862 476.115 188.882 476.369 188.901C476.623 188.911 476.872 188.921 477.116 188.931C477.361 188.94 477.566 188.945 477.732 188.945C478.415 188.945 479.113 188.901 479.826 188.813C480.549 188.716 481.242 188.54 481.906 188.286C482.58 188.032 483.21 187.686 483.796 187.246C484.392 186.797 484.909 186.221 485.349 185.518C485.798 184.814 486.15 183.97 486.403 182.983C486.657 181.987 486.784 180.815 486.784 179.468C486.784 177.974 486.604 176.646 486.242 175.483C485.881 174.312 485.349 173.325 484.646 172.524C483.952 171.724 483.088 171.118 482.053 170.708C481.028 170.288 479.846 170.078 478.508 170.078C478.244 170.078 477.946 170.088 477.614 170.107C477.282 170.117 476.95 170.132 476.618 170.151C476.296 170.161 475.988 170.181 475.695 170.21C475.412 170.229 475.178 170.244 474.992 170.254ZM471.784 168.936C472.009 168.945 472.219 168.955 472.414 168.965C472.58 168.975 472.751 168.984 472.927 168.994C473.103 168.994 473.244 168.994 473.352 168.994C473.537 168.994 473.845 168.984 474.275 168.965C474.714 168.945 475.212 168.926 475.769 168.906C476.325 168.887 476.902 168.867 477.497 168.848C478.103 168.828 478.669 168.818 479.196 168.818C480.612 168.818 481.96 168.994 483.239 169.346C484.519 169.697 485.642 170.273 486.609 171.074C487.575 171.875 488.342 172.925 488.908 174.224C489.475 175.522 489.758 177.119 489.758 179.014C489.758 180.371 489.607 181.592 489.304 182.676C489.011 183.76 488.596 184.717 488.059 185.547C487.522 186.377 486.877 187.09 486.125 187.686C485.383 188.271 484.558 188.755 483.65 189.136C482.751 189.517 481.789 189.795 480.764 189.971C479.738 190.146 478.679 190.234 477.585 190.234C477.195 190.234 476.721 190.22 476.164 190.19C475.617 190.171 475.066 190.146 474.509 190.117C473.952 190.088 473.425 190.059 472.927 190.029C472.439 190.01 472.058 190 471.784 190V189.941C471.843 189.736 471.897 189.482 471.945 189.18C472.004 188.877 472.053 188.501 472.092 188.052C472.131 187.603 472.16 187.07 472.18 186.455C472.199 185.83 472.209 185.103 472.209 184.272V174.736C472.209 173.906 472.199 173.179 472.18 172.554C472.16 171.919 472.131 171.377 472.092 170.928C472.053 170.469 472.004 170.083 471.945 169.771C471.897 169.458 471.843 169.199 471.784 168.994V168.936Z" fill="white"/>
<path d="M502.78 168.643C504.411 168.643 505.915 168.911 507.292 169.448C508.679 169.976 509.875 170.723 510.881 171.689C511.887 172.646 512.673 173.799 513.239 175.146C513.806 176.494 514.089 177.983 514.089 179.614C514.089 180.542 513.982 181.455 513.767 182.354C513.552 183.252 513.235 184.102 512.815 184.902C512.404 185.703 511.897 186.445 511.291 187.129C510.686 187.803 509.992 188.389 509.211 188.887C508.44 189.375 507.585 189.756 506.648 190.029C505.71 190.312 504.699 190.454 503.615 190.454C501.985 190.454 500.476 190.195 499.089 189.678C497.712 189.15 496.521 188.408 495.515 187.451C494.509 186.494 493.723 185.347 493.156 184.009C492.59 182.661 492.307 181.167 492.307 179.526C492.307 178.599 492.414 177.686 492.629 176.787C492.844 175.889 493.156 175.034 493.567 174.224C493.986 173.413 494.494 172.671 495.09 171.997C495.695 171.313 496.384 170.723 497.155 170.225C497.937 169.727 498.796 169.341 499.734 169.067C500.681 168.784 501.696 168.643 502.78 168.643ZM503.615 189.136C504.699 189.136 505.691 188.94 506.589 188.55C507.487 188.159 508.259 187.593 508.903 186.851C509.558 186.108 510.066 185.205 510.427 184.141C510.788 183.066 510.969 181.851 510.969 180.493C510.969 178.989 510.793 177.598 510.442 176.318C510.1 175.029 509.587 173.916 508.903 172.979C508.22 172.031 507.365 171.294 506.34 170.767C505.324 170.229 504.138 169.961 502.78 169.961C501.696 169.961 500.705 170.156 499.807 170.547C498.908 170.928 498.132 171.484 497.478 172.217C496.833 172.949 496.33 173.848 495.969 174.912C495.608 175.977 495.427 177.188 495.427 178.545C495.427 180.039 495.598 181.436 495.94 182.734C496.281 184.023 496.794 185.142 497.478 186.089C498.161 187.036 499.016 187.783 500.041 188.33C501.067 188.867 502.258 189.136 503.615 189.136Z" fill="white"/>
<path d="M520.49 184.272C520.49 185.103 520.5 185.83 520.52 186.455C520.549 187.07 520.578 187.603 520.608 188.052C520.647 188.501 520.691 188.877 520.739 189.18C520.798 189.482 520.857 189.736 520.915 189.941V190H517.4V189.941C517.458 189.736 517.512 189.482 517.561 189.18C517.619 188.877 517.663 188.501 517.693 188.052C517.732 187.603 517.761 187.07 517.78 186.455C517.81 185.84 517.824 185.112 517.824 184.272V174.736C517.824 173.906 517.81 173.184 517.78 172.568C517.761 171.943 517.732 171.406 517.693 170.957C517.663 170.508 517.619 170.132 517.561 169.829C517.512 169.517 517.458 169.258 517.4 169.053V168.994L518.015 169.053C518.2 169.072 518.405 169.087 518.63 169.097C518.864 169.097 519.104 169.097 519.348 169.097C519.729 169.097 520.241 169.053 520.886 168.965C521.54 168.867 522.37 168.818 523.376 168.818C524.314 168.818 525.178 168.945 525.969 169.199C526.77 169.453 527.463 169.824 528.049 170.312C528.635 170.801 529.089 171.401 529.411 172.114C529.743 172.817 529.909 173.618 529.909 174.517C529.909 175.22 529.817 175.874 529.631 176.479C529.455 177.075 529.201 177.617 528.869 178.105C528.547 178.594 528.156 179.028 527.697 179.409C527.238 179.78 526.726 180.093 526.159 180.347L531.301 187.568C531.555 187.93 531.789 188.242 532.004 188.506C532.229 188.77 532.439 188.999 532.634 189.194C532.839 189.38 533.034 189.536 533.22 189.663C533.405 189.78 533.596 189.873 533.791 189.941V190H529.558C529.529 189.814 529.431 189.57 529.265 189.268C529.109 188.955 528.923 188.647 528.708 188.345L523.523 181.035C523.298 181.055 523.073 181.074 522.849 181.094C522.624 181.104 522.395 181.108 522.16 181.108C521.887 181.108 521.609 181.099 521.325 181.079C521.052 181.06 520.774 181.025 520.49 180.977V184.272ZM520.49 179.834C520.754 179.893 521.023 179.937 521.296 179.966C521.57 179.985 521.833 179.995 522.087 179.995C522.82 179.995 523.488 179.888 524.094 179.673C524.699 179.448 525.212 179.111 525.632 178.662C526.062 178.213 526.394 177.656 526.628 176.992C526.862 176.318 526.98 175.532 526.98 174.634C526.98 173.901 526.897 173.237 526.731 172.642C526.565 172.046 526.316 171.543 525.984 171.133C525.661 170.713 525.251 170.391 524.753 170.166C524.255 169.932 523.674 169.814 523.01 169.814C522.336 169.814 521.799 169.849 521.399 169.917C520.998 169.985 520.695 170.059 520.49 170.137V179.834Z" fill="white"/>
<path d="M549.655 190V189.941C549.675 189.893 549.69 189.819 549.699 189.722C549.709 189.624 549.714 189.536 549.714 189.458C549.714 189.155 549.67 188.823 549.582 188.462C549.504 188.091 549.348 187.632 549.113 187.085L547.341 183.101C546.794 183.081 546.067 183.071 545.158 183.071C544.25 183.071 543.269 183.071 542.214 183.071C541.443 183.071 540.695 183.071 539.973 183.071C539.26 183.071 538.615 183.081 538.039 183.101L536.355 186.968C536.208 187.329 536.052 187.725 535.886 188.154C535.72 188.584 535.637 189.019 535.637 189.458C535.637 189.585 535.647 189.692 535.666 189.78C535.686 189.858 535.705 189.912 535.725 189.941V190H532.737V189.941C532.912 189.756 533.132 189.429 533.396 188.96C533.659 188.481 533.947 187.886 534.26 187.173L542.654 168.555H543.825L551.779 186.455C551.965 186.875 552.155 187.285 552.351 187.686C552.556 188.076 552.746 188.428 552.922 188.74C553.098 189.053 553.254 189.316 553.391 189.531C553.528 189.746 553.62 189.883 553.669 189.941V190H549.655ZM540.163 181.812C540.73 181.812 541.311 181.812 541.906 181.812C542.502 181.802 543.083 181.797 543.65 181.797C544.226 181.787 544.778 181.782 545.305 181.782C545.832 181.772 546.311 181.763 546.74 181.753L542.624 172.451L538.581 181.812H540.163Z" fill="white"/>
<path d="M556.306 168.994L571.394 185.049V174.736C571.394 173.906 571.384 173.184 571.364 172.568C571.345 171.943 571.316 171.406 571.277 170.957C571.237 170.498 571.189 170.117 571.13 169.814C571.081 169.512 571.028 169.258 570.969 169.053V168.994H573.576V169.053C573.518 169.258 573.464 169.512 573.415 169.814C573.366 170.117 573.322 170.498 573.283 170.957C573.244 171.406 573.215 171.943 573.195 172.568C573.176 173.184 573.166 173.906 573.166 174.736V190.293H572.654L557.566 174.253V184.272C557.566 185.103 557.575 185.83 557.595 186.455C557.614 187.07 557.644 187.603 557.683 188.052C557.722 188.501 557.766 188.877 557.815 189.18C557.863 189.482 557.917 189.736 557.976 189.941V190H555.368V189.941C555.427 189.736 555.481 189.482 555.529 189.18C555.588 188.877 555.637 188.501 555.676 188.052C555.715 187.603 555.744 187.07 555.764 186.455C555.783 185.83 555.793 185.103 555.793 184.272V174.736C555.793 173.906 555.783 173.184 555.764 172.568C555.744 171.943 555.715 171.406 555.676 170.957C555.637 170.498 555.588 170.117 555.529 169.814C555.481 169.512 555.427 169.258 555.368 169.053V168.994H556.306Z" fill="white"/>
<path d="M296.16 206.321C296.975 206.321 297.727 206.456 298.416 206.724C299.109 206.988 299.707 207.361 300.21 207.845C300.713 208.323 301.106 208.899 301.389 209.573C301.673 210.247 301.814 210.992 301.814 211.807C301.814 212.271 301.76 212.728 301.653 213.177C301.546 213.626 301.387 214.051 301.177 214.451C300.972 214.852 300.718 215.223 300.415 215.564C300.112 215.901 299.766 216.194 299.375 216.443C298.989 216.688 298.562 216.878 298.093 217.015C297.625 217.156 297.119 217.227 296.577 217.227C295.762 217.227 295.008 217.098 294.314 216.839C293.626 216.575 293.03 216.204 292.527 215.726C292.024 215.247 291.631 214.673 291.348 214.004C291.065 213.331 290.923 212.583 290.923 211.763C290.923 211.299 290.977 210.843 291.084 210.394C291.192 209.944 291.348 209.517 291.553 209.112C291.763 208.707 292.017 208.335 292.315 207.999C292.617 207.657 292.962 207.361 293.347 207.112C293.738 206.863 294.168 206.67 294.636 206.534C295.11 206.392 295.618 206.321 296.16 206.321ZM296.577 216.568C297.119 216.568 297.615 216.47 298.064 216.275C298.513 216.08 298.899 215.796 299.221 215.425C299.549 215.054 299.802 214.603 299.983 214.07C300.164 213.533 300.254 212.925 300.254 212.247C300.254 211.495 300.166 210.799 299.99 210.159C299.82 209.515 299.563 208.958 299.221 208.489C298.88 208.016 298.452 207.647 297.94 207.383C297.432 207.115 296.839 206.98 296.16 206.98C295.618 206.98 295.122 207.078 294.673 207.273C294.224 207.464 293.836 207.742 293.508 208.108C293.186 208.475 292.935 208.924 292.754 209.456C292.573 209.988 292.483 210.594 292.483 211.272C292.483 212.02 292.569 212.718 292.739 213.367C292.91 214.012 293.167 214.571 293.508 215.044C293.85 215.518 294.278 215.892 294.79 216.165C295.303 216.434 295.899 216.568 296.577 216.568Z" fill="#ECECEC"/>
<path d="M308.182 209.368C308.182 208.953 308.177 208.592 308.167 208.284C308.157 207.972 308.143 207.703 308.123 207.479C308.104 207.249 308.079 207.059 308.05 206.907C308.026 206.756 307.999 206.629 307.969 206.526V206.497C308.067 206.502 308.17 206.504 308.277 206.504C308.37 206.509 308.472 206.512 308.585 206.512C308.702 206.512 308.821 206.512 308.944 206.512C309.119 206.512 309.356 206.495 309.654 206.46C309.957 206.426 310.345 206.409 310.819 206.409C311.258 206.409 311.663 206.468 312.034 206.585C312.405 206.697 312.725 206.861 312.994 207.076C313.267 207.291 313.48 207.557 313.631 207.874C313.787 208.187 313.865 208.543 313.865 208.943C313.865 209.28 313.819 209.583 313.726 209.852C313.633 210.115 313.502 210.347 313.331 210.547C313.165 210.743 312.962 210.909 312.723 211.045C312.488 211.177 312.23 211.282 311.946 211.36C312.362 211.424 312.74 211.531 313.082 211.683C313.424 211.829 313.716 212.015 313.961 212.239C314.21 212.464 314.4 212.728 314.532 213.03C314.669 213.328 314.737 213.66 314.737 214.026C314.737 215.057 314.398 215.831 313.719 216.348C313.04 216.861 312.025 217.117 310.672 217.117C310.526 217.117 310.355 217.11 310.159 217.095C309.964 217.085 309.764 217.073 309.559 217.059C309.359 217.044 309.161 217.029 308.966 217.015C308.77 217.005 308.599 217 308.453 217H307.969V216.971C307.999 216.868 308.026 216.741 308.05 216.59C308.079 216.438 308.104 216.25 308.123 216.026C308.143 215.801 308.157 215.535 308.167 215.228C308.177 214.915 308.182 214.551 308.182 214.136V209.368ZM310.87 211.807C310.538 211.807 310.259 211.819 310.035 211.844C309.81 211.868 309.637 211.893 309.515 211.917V214.136C309.515 214.708 309.525 215.179 309.544 215.55C309.564 215.921 309.591 216.224 309.625 216.458C309.81 216.482 309.996 216.504 310.181 216.524C310.367 216.543 310.516 216.553 310.628 216.553C311.541 216.553 312.208 216.351 312.628 215.945C313.052 215.535 313.265 214.908 313.265 214.063C313.265 213.731 313.214 213.428 313.111 213.155C313.013 212.876 312.864 212.637 312.664 212.437C312.469 212.237 312.22 212.083 311.917 211.976C311.619 211.863 311.27 211.807 310.87 211.807ZM309.515 211.258C309.652 211.272 309.774 211.282 309.881 211.287C309.988 211.287 310.103 211.287 310.225 211.287C310.557 211.287 310.86 211.241 311.133 211.148C311.407 211.05 311.639 210.906 311.829 210.716C312.025 210.525 312.176 210.289 312.283 210.005C312.391 209.717 312.445 209.383 312.445 209.002C312.445 208.685 312.405 208.396 312.327 208.138C312.249 207.879 312.132 207.659 311.976 207.479C311.824 207.293 311.636 207.151 311.412 207.054C311.187 206.956 310.931 206.907 310.643 206.907C310.457 206.907 310.294 206.915 310.152 206.929C310.015 206.944 309.898 206.961 309.8 206.98C309.688 207 309.593 207.024 309.515 207.054V211.258Z" fill="#ECECEC"/>
<path d="M325.272 208.167H325.111C325.072 208.055 325.008 207.928 324.921 207.786C324.838 207.645 324.725 207.513 324.584 207.391C324.447 207.264 324.278 207.159 324.078 207.076C323.883 206.993 323.651 206.951 323.383 206.951C323.143 206.951 322.931 206.988 322.745 207.061C322.56 207.134 322.403 207.237 322.277 207.369C322.154 207.5 322.062 207.657 321.998 207.837C321.935 208.018 321.903 208.218 321.903 208.438C321.903 208.79 322.001 209.126 322.196 209.449C322.396 209.766 322.645 210.081 322.943 210.394C323.241 210.706 323.563 211.019 323.91 211.331C324.257 211.644 324.579 211.968 324.877 212.305C325.174 212.642 325.421 212.996 325.616 213.367C325.817 213.733 325.917 214.129 325.917 214.554C325.917 214.871 325.861 215.191 325.748 215.513C325.641 215.831 325.472 216.116 325.243 216.37C325.013 216.624 324.718 216.832 324.357 216.993C323.995 217.149 323.566 217.227 323.068 217.227C322.789 217.227 322.523 217.2 322.269 217.146C322.02 217.098 321.788 217.037 321.573 216.963C321.363 216.885 321.173 216.802 321.002 216.714C320.836 216.626 320.699 216.546 320.592 216.473L320.76 214.854H320.944C320.997 215.083 321.085 215.303 321.207 215.513C321.329 215.718 321.478 215.901 321.654 216.062C321.835 216.219 322.04 216.346 322.269 216.443C322.499 216.536 322.75 216.583 323.024 216.583C323.273 216.583 323.495 216.546 323.69 216.473C323.89 216.395 324.061 216.29 324.203 216.158C324.344 216.021 324.452 215.86 324.525 215.674C324.603 215.489 324.642 215.286 324.642 215.066C324.642 214.759 324.586 214.476 324.474 214.217C324.362 213.953 324.213 213.704 324.027 213.47C323.846 213.235 323.639 213.008 323.404 212.789C323.175 212.569 322.938 212.349 322.694 212.129C322.45 211.905 322.211 211.675 321.976 211.441C321.747 211.207 321.539 210.958 321.354 210.694C321.173 210.425 321.027 210.14 320.914 209.837C320.802 209.529 320.746 209.192 320.746 208.826C320.746 208.44 320.819 208.094 320.966 207.786C321.117 207.474 321.315 207.208 321.559 206.988C321.808 206.768 322.089 206.6 322.401 206.482C322.714 206.365 323.036 206.307 323.368 206.307C323.612 206.307 323.837 206.326 324.042 206.365C324.247 206.404 324.43 206.451 324.591 206.504C324.757 206.558 324.901 206.612 325.023 206.666C325.145 206.719 325.245 206.763 325.323 206.797L325.272 208.167Z" fill="#ECECEC"/>
<path d="M334.98 207.142C334.404 207.142 333.883 207.168 333.42 207.222C332.956 207.271 332.555 207.325 332.218 207.383C331.828 207.457 331.479 207.537 331.171 207.625L331.383 206.438C331.442 206.443 331.53 206.448 331.647 206.453C331.764 206.458 331.894 206.463 332.035 206.468C332.182 206.473 332.333 206.478 332.489 206.482C332.651 206.482 332.802 206.485 332.944 206.49C333.085 206.49 333.21 206.492 333.317 206.497C333.429 206.497 333.51 206.497 333.559 206.497H337.741C337.79 206.497 337.868 206.497 337.975 206.497C338.088 206.492 338.215 206.49 338.356 206.49C338.498 206.485 338.647 206.482 338.803 206.482C338.964 206.478 339.115 206.473 339.257 206.468C339.404 206.463 339.535 206.458 339.653 206.453C339.77 206.448 339.858 206.443 339.916 206.438L340.129 207.625C339.816 207.537 339.465 207.457 339.074 207.383C338.737 207.325 338.337 207.271 337.873 207.222C337.409 207.168 336.889 207.142 336.313 207.142V214.136C336.313 214.551 336.318 214.915 336.327 215.228C336.342 215.535 336.357 215.801 336.371 216.026C336.391 216.25 336.413 216.438 336.437 216.59C336.466 216.741 336.496 216.868 336.525 216.971V217H334.775V216.971C334.804 216.868 334.831 216.741 334.855 216.59C334.88 216.438 334.902 216.25 334.921 216.026C334.941 215.801 334.955 215.535 334.965 215.228C334.975 214.915 334.98 214.551 334.98 214.136V207.142Z" fill="#ECECEC"/>
<path d="M345.683 206.497C346.294 206.497 346.899 206.495 347.5 206.49C348.105 206.485 348.659 206.48 349.162 206.475C349.665 206.465 350.095 206.453 350.451 206.438C350.808 206.424 351.049 206.404 351.176 206.38L350.818 207.354C350.656 207.31 350.468 207.271 350.254 207.237C350.068 207.208 349.841 207.181 349.572 207.156C349.309 207.127 349.004 207.112 348.657 207.112C348.54 207.112 348.398 207.117 348.232 207.127C348.071 207.132 347.915 207.139 347.763 207.149C347.588 207.159 347.409 207.168 347.229 207.178V211.177C347.732 211.172 348.186 211.158 348.591 211.133C348.996 211.109 349.341 211.084 349.624 211.06C349.956 211.031 350.249 210.997 350.503 210.958L350.276 212.02C349.939 211.976 349.594 211.934 349.243 211.895C348.94 211.861 348.611 211.832 348.254 211.807C347.898 211.778 347.556 211.763 347.229 211.763V216.355C347.805 216.355 348.335 216.331 348.818 216.282C349.301 216.233 349.724 216.177 350.085 216.114C350.505 216.045 350.888 215.965 351.235 215.872L351.023 217.059C350.964 217.054 350.876 217.049 350.759 217.044C350.642 217.039 350.51 217.034 350.363 217.029C350.222 217.024 350.07 217.02 349.909 217.015C349.753 217.015 349.604 217.012 349.463 217.007C349.321 217.007 349.194 217.005 349.082 217C348.974 217 348.896 217 348.847 217H345.683V216.971C345.713 216.868 345.739 216.741 345.764 216.59C345.793 216.438 345.818 216.25 345.837 216.026C345.857 215.801 345.871 215.535 345.881 215.228C345.891 214.915 345.896 214.551 345.896 214.136V209.368C345.896 208.953 345.891 208.592 345.881 208.284C345.871 207.972 345.857 207.703 345.837 207.479C345.818 207.249 345.793 207.059 345.764 206.907C345.739 206.756 345.713 206.629 345.683 206.526V206.497Z" fill="#ECECEC"/>
<path d="M360.298 207.142C359.722 207.142 359.202 207.168 358.738 207.222C358.274 207.271 357.874 207.325 357.537 207.383C357.146 207.457 356.797 207.537 356.489 207.625L356.702 206.438C356.76 206.443 356.848 206.448 356.966 206.453C357.083 206.458 357.212 206.463 357.354 206.468C357.5 206.473 357.652 206.478 357.808 206.482C357.969 206.482 358.12 206.485 358.262 206.49C358.404 206.49 358.528 206.492 358.635 206.497C358.748 206.497 358.828 206.497 358.877 206.497H363.059C363.108 206.497 363.186 206.497 363.294 206.497C363.406 206.492 363.533 206.49 363.674 206.49C363.816 206.485 363.965 206.482 364.121 206.482C364.282 206.478 364.434 206.473 364.575 206.468C364.722 206.463 364.854 206.458 364.971 206.453C365.088 206.448 365.176 206.443 365.235 206.438L365.447 207.625C365.134 207.537 364.783 207.457 364.392 207.383C364.055 207.325 363.655 207.271 363.191 207.222C362.727 207.168 362.207 207.142 361.631 207.142V214.136C361.631 214.551 361.636 214.915 361.646 215.228C361.66 215.535 361.675 215.801 361.69 216.026C361.709 216.25 361.731 216.438 361.756 216.59C361.785 216.741 361.814 216.868 361.843 216.971V217H360.093V216.971C360.122 216.868 360.149 216.741 360.174 216.59C360.198 216.438 360.22 216.25 360.239 216.026C360.259 215.801 360.274 215.535 360.283 215.228C360.293 214.915 360.298 214.551 360.298 214.136V207.142Z" fill="#ECECEC"/>
<path d="M372.547 214.136C372.547 214.551 372.552 214.915 372.562 215.228C372.576 215.535 372.591 215.801 372.606 216.026C372.625 216.25 372.647 216.438 372.672 216.59C372.701 216.741 372.73 216.868 372.759 216.971V217H371.002V216.971C371.031 216.868 371.058 216.741 371.082 216.59C371.112 216.438 371.133 216.25 371.148 216.026C371.168 215.801 371.182 215.535 371.192 215.228C371.207 214.92 371.214 214.556 371.214 214.136V209.368C371.214 208.953 371.207 208.592 371.192 208.284C371.182 207.972 371.168 207.703 371.148 207.479C371.133 207.254 371.112 207.066 371.082 206.915C371.058 206.758 371.031 206.629 371.002 206.526V206.497L371.309 206.526C371.402 206.536 371.505 206.543 371.617 206.548C371.734 206.548 371.854 206.548 371.976 206.548C372.166 206.548 372.423 206.526 372.745 206.482C373.072 206.434 373.487 206.409 373.99 206.409C374.459 206.409 374.891 206.473 375.286 206.6C375.687 206.727 376.033 206.912 376.326 207.156C376.619 207.4 376.846 207.701 377.008 208.057C377.174 208.409 377.257 208.809 377.257 209.258C377.257 209.61 377.21 209.937 377.117 210.24C377.029 210.538 376.903 210.809 376.737 211.053C376.575 211.297 376.38 211.514 376.151 211.705C375.921 211.89 375.665 212.046 375.382 212.173L377.952 215.784C378.079 215.965 378.196 216.121 378.304 216.253C378.416 216.385 378.521 216.5 378.619 216.597C378.721 216.69 378.819 216.768 378.912 216.832C379.005 216.89 379.1 216.937 379.197 216.971V217H377.081C377.066 216.907 377.017 216.785 376.934 216.634C376.856 216.478 376.763 216.324 376.656 216.172L374.063 212.518C373.951 212.527 373.839 212.537 373.726 212.547C373.614 212.552 373.499 212.554 373.382 212.554C373.245 212.554 373.106 212.549 372.965 212.54C372.828 212.53 372.689 212.513 372.547 212.488V214.136ZM372.547 211.917C372.679 211.946 372.813 211.968 372.95 211.983C373.087 211.993 373.218 211.998 373.345 211.998C373.712 211.998 374.046 211.944 374.349 211.836C374.652 211.724 374.908 211.556 375.118 211.331C375.333 211.106 375.499 210.828 375.616 210.496C375.733 210.159 375.792 209.766 375.792 209.317C375.792 208.951 375.75 208.619 375.667 208.321C375.584 208.023 375.46 207.771 375.294 207.566C375.133 207.356 374.927 207.195 374.678 207.083C374.429 206.966 374.139 206.907 373.807 206.907C373.47 206.907 373.201 206.924 373.001 206.958C372.801 206.993 372.65 207.029 372.547 207.068V211.917Z" fill="#ECECEC"/>
<path d="M384.43 216.971C384.459 216.868 384.486 216.741 384.51 216.59C384.535 216.438 384.557 216.25 384.576 216.026C384.596 215.801 384.611 215.535 384.62 215.228C384.63 214.915 384.635 214.551 384.635 214.136V209.368C384.635 208.953 384.63 208.592 384.62 208.284C384.611 207.972 384.596 207.703 384.576 207.479C384.557 207.249 384.535 207.059 384.51 206.907C384.486 206.756 384.459 206.629 384.43 206.526V206.497H386.18V206.526C386.151 206.629 386.122 206.756 386.092 206.907C386.068 207.059 386.046 207.249 386.027 207.479C386.012 207.703 385.997 207.972 385.983 208.284C385.973 208.592 385.968 208.953 385.968 209.368V214.136C385.968 214.551 385.973 214.915 385.983 215.228C385.997 215.535 386.012 215.801 386.027 216.026C386.046 216.25 386.068 216.438 386.092 216.59C386.122 216.741 386.151 216.868 386.18 216.971V217H384.43V216.971Z" fill="#ECECEC"/>
<path d="M401.344 208.108L401.279 208.138C400.898 207.786 400.439 207.505 399.902 207.295C399.369 207.085 398.783 206.98 398.144 206.98C397.529 206.98 396.965 207.078 396.452 207.273C395.939 207.464 395.497 207.742 395.126 208.108C394.76 208.475 394.474 208.924 394.269 209.456C394.064 209.988 393.962 210.594 393.962 211.272C393.962 212.02 394.059 212.718 394.255 213.367C394.45 214.012 394.74 214.571 395.126 215.044C395.512 215.518 395.993 215.892 396.569 216.165C397.15 216.434 397.826 216.568 398.598 216.568C398.876 216.568 399.154 216.539 399.433 216.48C399.711 216.421 399.977 216.336 400.231 216.224C400.49 216.106 400.732 215.967 400.956 215.806C401.186 215.64 401.393 215.452 401.579 215.242L401.659 215.293L401.073 216.788C400.707 216.929 400.302 217.037 399.858 217.11C399.418 217.188 398.974 217.227 398.525 217.227C397.621 217.227 396.794 217.098 396.042 216.839C395.295 216.575 394.65 216.204 394.108 215.726C393.571 215.247 393.151 214.673 392.848 214.004C392.55 213.331 392.402 212.583 392.402 211.763C392.402 211.299 392.46 210.843 392.577 210.394C392.699 209.944 392.875 209.517 393.105 209.112C393.334 208.707 393.617 208.335 393.954 207.999C394.291 207.657 394.674 207.361 395.104 207.112C395.539 206.863 396.015 206.67 396.532 206.534C397.055 206.392 397.619 206.321 398.224 206.321C399.167 206.321 400.041 206.465 400.846 206.753L401.344 208.108Z" fill="#ECECEC"/>
<path d="M414.912 217V216.971C414.922 216.946 414.929 216.91 414.934 216.861C414.939 216.812 414.941 216.768 414.941 216.729C414.941 216.578 414.919 216.412 414.875 216.231C414.836 216.045 414.758 215.816 414.641 215.542L413.755 213.55C413.481 213.541 413.117 213.536 412.663 213.536C412.209 213.536 411.718 213.536 411.191 213.536C410.805 213.536 410.432 213.536 410.07 213.536C409.714 213.536 409.392 213.541 409.104 213.55L408.261 215.484C408.188 215.665 408.11 215.862 408.027 216.077C407.944 216.292 407.903 216.509 407.903 216.729C407.903 216.792 407.907 216.846 407.917 216.89C407.927 216.929 407.937 216.956 407.946 216.971V217H406.452V216.971C406.54 216.878 406.65 216.714 406.782 216.48C406.914 216.241 407.058 215.943 407.214 215.586L411.411 206.277H411.997L415.974 215.228C416.067 215.438 416.162 215.643 416.259 215.843C416.362 216.038 416.457 216.214 416.545 216.37C416.633 216.526 416.711 216.658 416.779 216.766C416.848 216.873 416.894 216.941 416.919 216.971V217H414.912ZM410.166 212.906C410.449 212.906 410.739 212.906 411.037 212.906C411.335 212.901 411.626 212.898 411.909 212.898C412.197 212.894 412.473 212.891 412.737 212.891C413 212.886 413.239 212.881 413.454 212.876L411.396 208.226L409.375 212.906H410.166Z" fill="#ECECEC"/>
<path d="M440.567 215.77C440.567 215.823 440.56 215.879 440.545 215.938C440.535 215.997 440.508 216.045 440.465 216.084C440.245 216.25 440.006 216.404 439.747 216.546C439.493 216.683 439.217 216.802 438.919 216.905C438.621 217.007 438.299 217.085 437.952 217.139C437.611 217.198 437.242 217.227 436.846 217.227C435.958 217.227 435.147 217.098 434.415 216.839C433.682 216.575 433.052 216.204 432.525 215.726C432.003 215.247 431.597 214.673 431.309 214.004C431.021 213.331 430.877 212.583 430.877 211.763C430.877 211.299 430.936 210.843 431.053 210.394C431.175 209.944 431.351 209.517 431.58 209.112C431.81 208.707 432.093 208.335 432.43 207.999C432.767 207.657 433.15 207.361 433.58 207.112C434.014 206.863 434.49 206.67 435.008 206.534C435.53 206.392 436.094 206.321 436.7 206.321C436.934 206.321 437.174 206.333 437.418 206.358C437.662 206.377 437.904 206.409 438.143 206.453C438.382 206.492 438.612 206.541 438.831 206.6C439.056 206.658 439.268 206.724 439.468 206.797L439.966 208.152L439.908 208.182C439.717 208.011 439.498 207.852 439.249 207.706C439 207.559 438.734 207.432 438.45 207.325C438.167 207.217 437.869 207.134 437.557 207.076C437.249 207.012 436.937 206.98 436.619 206.98C436.004 206.98 435.44 207.078 434.927 207.273C434.415 207.464 433.973 207.742 433.602 208.108C433.236 208.475 432.95 208.924 432.745 209.456C432.54 209.988 432.437 210.594 432.437 211.272C432.437 212.02 432.535 212.713 432.73 213.353C432.925 213.992 433.216 214.546 433.602 215.015C433.987 215.484 434.468 215.853 435.045 216.121C435.626 216.385 436.302 216.517 437.073 216.517C437.415 216.517 437.72 216.49 437.989 216.436C438.258 216.382 438.485 216.316 438.67 216.238C438.856 216.155 438.995 216.067 439.088 215.975C439.185 215.877 439.234 215.789 439.234 215.711V215.425C439.234 215.083 439.229 214.788 439.219 214.539C439.21 214.29 439.195 214.075 439.175 213.895C439.156 213.709 439.134 213.55 439.11 213.418C439.085 213.287 439.056 213.165 439.022 213.052V213.023H440.779V213.052C440.75 213.155 440.721 213.277 440.692 213.418C440.667 213.555 440.645 213.719 440.626 213.909C440.606 214.1 440.591 214.324 440.582 214.583C440.572 214.837 440.567 215.132 440.567 215.469V215.77Z" fill="#ECECEC"/>
<path d="M447.023 216.971C447.052 216.868 447.079 216.741 447.103 216.59C447.128 216.438 447.15 216.25 447.169 216.026C447.189 215.801 447.203 215.535 447.213 215.228C447.223 214.915 447.228 214.551 447.228 214.136V209.368C447.228 208.953 447.223 208.592 447.213 208.284C447.203 207.972 447.189 207.703 447.169 207.479C447.15 207.249 447.128 207.059 447.103 206.907C447.079 206.756 447.052 206.629 447.023 206.526V206.497H448.773V206.526C448.744 206.629 448.715 206.756 448.685 206.907C448.661 207.059 448.639 207.249 448.619 207.479C448.605 207.703 448.59 207.972 448.575 208.284C448.566 208.592 448.561 208.953 448.561 209.368V214.136C448.561 214.551 448.566 214.915 448.575 215.228C448.59 215.535 448.605 215.801 448.619 216.026C448.639 216.25 448.661 216.438 448.685 216.59C448.715 216.741 448.744 216.868 448.773 216.971V217H447.023V216.971Z" fill="#ECECEC"/>
<path d="M455.851 206.497L463.395 214.524V209.368C463.395 208.953 463.39 208.592 463.381 208.284C463.371 207.972 463.356 207.703 463.337 207.479C463.317 207.249 463.293 207.059 463.263 206.907C463.239 206.756 463.212 206.629 463.183 206.526V206.497H464.487V206.526C464.457 206.629 464.43 206.756 464.406 206.907C464.382 207.059 464.36 207.249 464.34 207.479C464.32 207.703 464.306 207.972 464.296 208.284C464.286 208.592 464.281 208.953 464.281 209.368V217.146H464.025L456.481 209.126V214.136C456.481 214.551 456.486 214.915 456.496 215.228C456.506 215.535 456.52 215.801 456.54 216.026C456.559 216.25 456.581 216.438 456.606 216.59C456.63 216.741 456.657 216.868 456.686 216.971V217H455.383V216.971C455.412 216.868 455.439 216.741 455.463 216.59C455.492 216.438 455.517 216.25 455.536 216.026C455.556 215.801 455.57 215.535 455.58 215.228C455.59 214.915 455.595 214.551 455.595 214.136V209.368C455.595 208.953 455.59 208.592 455.58 208.284C455.57 207.972 455.556 207.703 455.536 207.479C455.517 207.249 455.492 207.059 455.463 206.907C455.439 206.756 455.412 206.629 455.383 206.526V206.497H455.851Z" fill="#ECECEC"/>
<path d="M471.03 206.497C471.64 206.497 472.246 206.495 472.846 206.49C473.452 206.485 474.006 206.48 474.509 206.475C475.012 206.465 475.442 206.453 475.798 206.438C476.154 206.424 476.396 206.404 476.523 206.38L476.164 207.354C476.003 207.31 475.815 207.271 475.6 207.237C475.415 207.208 475.188 207.181 474.919 207.156C474.655 207.127 474.35 207.112 474.004 207.112C473.886 207.112 473.745 207.117 473.579 207.127C473.418 207.132 473.261 207.139 473.11 207.149C472.934 207.159 472.756 207.168 472.575 207.178V211.177C473.078 211.172 473.532 211.158 473.938 211.133C474.343 211.109 474.687 211.084 474.97 211.06C475.302 211.031 475.595 210.997 475.849 210.958L475.622 212.02C475.285 211.976 474.941 211.934 474.59 211.895C474.287 211.861 473.957 211.832 473.601 211.807C473.244 211.778 472.903 211.763 472.575 211.763V216.355C473.152 216.355 473.681 216.331 474.165 216.282C474.648 216.233 475.07 216.177 475.432 216.114C475.852 216.045 476.235 215.965 476.582 215.872L476.369 217.059C476.311 217.054 476.223 217.049 476.106 217.044C475.988 217.039 475.857 217.034 475.71 217.029C475.569 217.024 475.417 217.02 475.256 217.015C475.1 217.015 474.951 217.012 474.809 217.007C474.668 217.007 474.541 217.005 474.428 217C474.321 217 474.243 217 474.194 217H471.03V216.971C471.059 216.868 471.086 216.741 471.111 216.59C471.14 216.438 471.164 216.25 471.184 216.026C471.203 215.801 471.218 215.535 471.228 215.228C471.237 214.915 471.242 214.551 471.242 214.136V209.368C471.242 208.953 471.237 208.592 471.228 208.284C471.218 207.972 471.203 207.703 471.184 207.479C471.164 207.249 471.14 207.059 471.111 206.907C471.086 206.756 471.059 206.629 471.03 206.526V206.497Z" fill="#ECECEC"/>
<path d="M491.38 208.108L491.314 208.138C490.933 207.786 490.474 207.505 489.937 207.295C489.404 207.085 488.819 206.98 488.179 206.98C487.564 206.98 487 207.078 486.487 207.273C485.974 207.464 485.532 207.742 485.161 208.108C484.795 208.475 484.509 208.924 484.304 209.456C484.099 209.988 483.997 210.594 483.997 211.272C483.997 212.02 484.094 212.718 484.29 213.367C484.485 214.012 484.776 214.571 485.161 215.044C485.547 215.518 486.028 215.892 486.604 216.165C487.185 216.434 487.862 216.568 488.633 216.568C488.911 216.568 489.19 216.539 489.468 216.48C489.746 216.421 490.012 216.336 490.266 216.224C490.525 216.106 490.767 215.967 490.991 215.806C491.221 215.64 491.428 215.452 491.614 215.242L491.695 215.293L491.109 216.788C490.742 216.929 490.337 217.037 489.893 217.11C489.453 217.188 489.009 217.227 488.56 217.227C487.656 217.227 486.829 217.098 486.077 216.839C485.33 216.575 484.685 216.204 484.143 215.726C483.606 215.247 483.186 214.673 482.883 214.004C482.586 213.331 482.437 212.583 482.437 211.763C482.437 211.299 482.495 210.843 482.612 210.394C482.735 209.944 482.91 209.517 483.14 209.112C483.369 208.707 483.653 208.335 483.989 207.999C484.326 207.657 484.71 207.361 485.139 207.112C485.574 206.863 486.05 206.67 486.568 206.534C487.09 206.392 487.654 206.321 488.259 206.321C489.202 206.321 490.076 206.465 490.882 206.753L491.38 208.108Z" fill="#ECECEC"/>
<path d="M502.325 206.321C503.14 206.321 503.892 206.456 504.581 206.724C505.274 206.988 505.872 207.361 506.375 207.845C506.878 208.323 507.271 208.899 507.554 209.573C507.838 210.247 507.979 210.992 507.979 211.807C507.979 212.271 507.925 212.728 507.818 213.177C507.711 213.626 507.552 214.051 507.342 214.451C507.137 214.852 506.883 215.223 506.58 215.564C506.278 215.901 505.931 216.194 505.54 216.443C505.154 216.688 504.727 216.878 504.258 217.015C503.79 217.156 503.284 217.227 502.742 217.227C501.927 217.227 501.173 217.098 500.479 216.839C499.791 216.575 499.195 216.204 498.692 215.726C498.189 215.247 497.796 214.673 497.513 214.004C497.23 213.331 497.088 212.583 497.088 211.763C497.088 211.299 497.142 210.843 497.249 210.394C497.357 209.944 497.513 209.517 497.718 209.112C497.928 208.707 498.182 208.335 498.48 207.999C498.782 207.657 499.127 207.361 499.512 207.112C499.903 206.863 500.333 206.67 500.801 206.534C501.275 206.392 501.783 206.321 502.325 206.321ZM502.742 216.568C503.284 216.568 503.78 216.47 504.229 216.275C504.678 216.08 505.064 215.796 505.386 215.425C505.714 215.054 505.967 214.603 506.148 214.07C506.329 213.533 506.419 212.925 506.419 212.247C506.419 211.495 506.331 210.799 506.155 210.159C505.985 209.515 505.728 208.958 505.386 208.489C505.045 208.016 504.617 207.647 504.105 207.383C503.597 207.115 503.004 206.98 502.325 206.98C501.783 206.98 501.287 207.078 500.838 207.273C500.389 207.464 500.001 207.742 499.674 208.108C499.351 208.475 499.1 208.924 498.919 209.456C498.738 209.988 498.648 210.594 498.648 211.272C498.648 212.02 498.734 212.718 498.904 213.367C499.075 214.012 499.332 214.571 499.674 215.044C500.015 215.518 500.443 215.892 500.955 216.165C501.468 216.434 502.064 216.568 502.742 216.568Z" fill="#ECECEC"/>
<path d="M515.68 216.355C516.256 216.355 516.786 216.331 517.269 216.282C517.753 216.233 518.175 216.177 518.536 216.114C518.956 216.045 519.34 215.965 519.686 215.872L519.474 217.059C519.415 217.054 519.327 217.049 519.21 217.044C519.093 217.039 518.961 217.034 518.815 217.029C518.673 217.024 518.522 217.02 518.361 217.015C518.204 217.015 518.055 217.012 517.914 217.007C517.772 217.007 517.645 217.005 517.533 217C517.425 217 517.347 217 517.299 217H514.134V216.971C514.164 216.868 514.191 216.741 514.215 216.59C514.244 216.438 514.269 216.25 514.288 216.026C514.308 215.801 514.322 215.535 514.332 215.228C514.342 214.915 514.347 214.551 514.347 214.136V209.368C514.347 208.953 514.342 208.592 514.332 208.284C514.322 207.972 514.308 207.703 514.288 207.479C514.269 207.249 514.244 207.059 514.215 206.907C514.191 206.756 514.164 206.629 514.134 206.526V206.497H515.892V206.526C515.863 206.629 515.834 206.756 515.804 206.907C515.78 207.059 515.758 207.249 515.738 207.479C515.724 207.703 515.709 207.972 515.695 208.284C515.685 208.592 515.68 208.953 515.68 209.368V216.355Z" fill="#ECECEC"/>
<path d="M530.324 206.321C531.139 206.321 531.891 206.456 532.58 206.724C533.273 206.988 533.871 207.361 534.374 207.845C534.877 208.323 535.27 208.899 535.553 209.573C535.837 210.247 535.978 210.992 535.978 211.807C535.978 212.271 535.924 212.728 535.817 213.177C535.71 213.626 535.551 214.051 535.341 214.451C535.136 214.852 534.882 215.223 534.579 215.564C534.277 215.901 533.93 216.194 533.539 216.443C533.154 216.688 532.726 216.878 532.258 217.015C531.789 217.156 531.283 217.227 530.741 217.227C529.926 217.227 529.172 217.098 528.478 216.839C527.79 216.575 527.194 216.204 526.691 215.726C526.188 215.247 525.795 214.673 525.512 214.004C525.229 213.331 525.087 212.583 525.087 211.763C525.087 211.299 525.141 210.843 525.248 210.394C525.356 209.944 525.512 209.517 525.717 209.112C525.927 208.707 526.181 208.335 526.479 207.999C526.781 207.657 527.126 207.361 527.511 207.112C527.902 206.863 528.332 206.67 528.8 206.534C529.274 206.392 529.782 206.321 530.324 206.321ZM530.741 216.568C531.283 216.568 531.779 216.47 532.228 216.275C532.677 216.08 533.063 215.796 533.385 215.425C533.713 215.054 533.966 214.603 534.147 214.07C534.328 213.533 534.418 212.925 534.418 212.247C534.418 211.495 534.33 210.799 534.154 210.159C533.984 209.515 533.727 208.958 533.385 208.489C533.044 208.016 532.616 207.647 532.104 207.383C531.596 207.115 531.003 206.98 530.324 206.98C529.782 206.98 529.286 207.078 528.837 207.273C528.388 207.464 528 207.742 527.673 208.108C527.35 208.475 527.099 208.924 526.918 209.456C526.737 209.988 526.647 210.594 526.647 211.272C526.647 212.02 526.733 212.718 526.904 213.367C527.074 214.012 527.331 214.571 527.673 215.044C528.014 215.518 528.442 215.892 528.954 216.165C529.467 216.434 530.063 216.568 530.741 216.568Z" fill="#ECECEC"/>
<path d="M551.377 215.77C551.377 215.823 551.369 215.879 551.355 215.938C551.345 215.997 551.318 216.045 551.274 216.084C551.054 216.25 550.815 216.404 550.556 216.546C550.302 216.683 550.027 216.802 549.729 216.905C549.431 217.007 549.109 217.085 548.762 217.139C548.42 217.198 548.051 217.227 547.656 217.227C546.767 217.227 545.957 217.098 545.224 216.839C544.492 216.575 543.862 216.204 543.335 215.726C542.812 215.247 542.407 214.673 542.119 214.004C541.831 213.331 541.687 212.583 541.687 211.763C541.687 211.299 541.745 210.843 541.862 210.394C541.985 209.944 542.16 209.517 542.39 209.112C542.619 208.707 542.903 208.335 543.239 207.999C543.576 207.657 543.96 207.361 544.389 207.112C544.824 206.863 545.3 206.67 545.818 206.534C546.34 206.392 546.904 206.321 547.509 206.321C547.744 206.321 547.983 206.333 548.227 206.358C548.471 206.377 548.713 206.409 548.952 206.453C549.192 206.492 549.421 206.541 549.641 206.6C549.865 206.658 550.078 206.724 550.278 206.797L550.776 208.152L550.717 208.182C550.527 208.011 550.307 207.852 550.058 207.706C549.809 207.559 549.543 207.432 549.26 207.325C548.977 207.217 548.679 207.134 548.366 207.076C548.059 207.012 547.746 206.98 547.429 206.98C546.814 206.98 546.25 207.078 545.737 207.273C545.224 207.464 544.782 207.742 544.411 208.108C544.045 208.475 543.759 208.924 543.554 209.456C543.349 209.988 543.247 210.594 543.247 211.272C543.247 212.02 543.344 212.713 543.54 213.353C543.735 213.992 544.026 214.546 544.411 215.015C544.797 215.484 545.278 215.853 545.854 216.121C546.435 216.385 547.112 216.517 547.883 216.517C548.225 216.517 548.53 216.49 548.799 216.436C549.067 216.382 549.294 216.316 549.48 216.238C549.665 216.155 549.804 216.067 549.897 215.975C549.995 215.877 550.044 215.789 550.044 215.711V215.425C550.044 215.083 550.039 214.788 550.029 214.539C550.019 214.29 550.005 214.075 549.985 213.895C549.966 213.709 549.944 213.55 549.919 213.418C549.895 213.287 549.865 213.165 549.831 213.052V213.023H551.589V213.052C551.56 213.155 551.53 213.277 551.501 213.418C551.477 213.555 551.455 213.719 551.435 213.909C551.416 214.1 551.401 214.324 551.391 214.583C551.382 214.837 551.377 215.132 551.377 215.469V215.77Z" fill="#ECECEC"/>
<path d="M557.832 216.971C557.862 216.868 557.888 216.741 557.913 216.59C557.937 216.438 557.959 216.25 557.979 216.026C557.998 215.801 558.013 215.535 558.023 215.228C558.032 214.915 558.037 214.551 558.037 214.136V209.368C558.037 208.953 558.032 208.592 558.023 208.284C558.013 207.972 557.998 207.703 557.979 207.479C557.959 207.249 557.937 207.059 557.913 206.907C557.888 206.756 557.862 206.629 557.832 206.526V206.497H559.583V206.526C559.553 206.629 559.524 206.756 559.495 206.907C559.47 207.059 559.448 207.249 559.429 207.479C559.414 207.703 559.4 207.972 559.385 208.284C559.375 208.592 559.37 208.953 559.37 209.368V214.136C559.37 214.551 559.375 214.915 559.385 215.228C559.4 215.535 559.414 215.801 559.429 216.026C559.448 216.25 559.47 216.438 559.495 216.59C559.524 216.741 559.553 216.868 559.583 216.971V217H557.832V216.971Z" fill="#ECECEC"/>
<path d="M566.251 206.497C566.861 206.497 567.466 206.495 568.067 206.49C568.673 206.485 569.227 206.48 569.73 206.475C570.233 206.465 570.662 206.453 571.019 206.438C571.375 206.424 571.617 206.404 571.744 206.38L571.385 207.354C571.224 207.31 571.036 207.271 570.821 207.237C570.635 207.208 570.408 207.181 570.14 207.156C569.876 207.127 569.571 207.112 569.224 207.112C569.107 207.112 568.966 207.117 568.799 207.127C568.638 207.132 568.482 207.139 568.331 207.149C568.155 207.159 567.977 207.168 567.796 207.178V211.177C568.299 211.172 568.753 211.158 569.158 211.133C569.564 211.109 569.908 211.084 570.191 211.06C570.523 211.031 570.816 210.997 571.07 210.958L570.843 212.02C570.506 211.976 570.162 211.934 569.81 211.895C569.508 211.861 569.178 211.832 568.821 211.807C568.465 211.778 568.123 211.763 567.796 211.763V216.355C568.372 216.355 568.902 216.331 569.385 216.282C569.869 216.233 570.291 216.177 570.653 216.114C571.072 216.045 571.456 215.965 571.802 215.872L571.59 217.059C571.531 217.054 571.444 217.049 571.326 217.044C571.209 217.039 571.077 217.034 570.931 217.029C570.789 217.024 570.638 217.02 570.477 217.015C570.32 217.015 570.172 217.012 570.03 217.007C569.888 217.007 569.761 217.005 569.649 217C569.542 217 569.464 217 569.415 217H566.251V216.971C566.28 216.868 566.307 216.741 566.331 216.59C566.361 216.438 566.385 216.25 566.404 216.026C566.424 215.801 566.439 215.535 566.448 215.228C566.458 214.915 566.463 214.551 566.463 214.136V209.368C566.463 208.953 566.458 208.592 566.448 208.284C566.439 207.972 566.424 207.703 566.404 207.479C566.385 207.249 566.361 207.059 566.331 206.907C566.307 206.756 566.28 206.629 566.251 206.526V206.497Z" fill="#ECECEC"/>
<path d="M316.129 240.77C316.129 240.823 316.121 240.879 316.107 240.938C316.097 240.997 316.07 241.045 316.026 241.084C315.806 241.25 315.567 241.404 315.308 241.546C315.054 241.683 314.778 241.802 314.481 241.905C314.183 242.007 313.861 242.085 313.514 242.139C313.172 242.198 312.803 242.227 312.408 242.227C311.519 242.227 310.709 242.098 309.976 241.839C309.244 241.575 308.614 241.204 308.087 240.726C307.564 240.247 307.159 239.673 306.871 239.004C306.583 238.331 306.439 237.583 306.439 236.763C306.439 236.299 306.497 235.843 306.614 235.394C306.737 234.944 306.912 234.517 307.142 234.112C307.371 233.707 307.654 233.335 307.991 232.999C308.328 232.657 308.712 232.361 309.141 232.112C309.576 231.863 310.052 231.67 310.57 231.534C311.092 231.392 311.656 231.321 312.261 231.321C312.496 231.321 312.735 231.333 312.979 231.358C313.223 231.377 313.465 231.409 313.704 231.453C313.944 231.492 314.173 231.541 314.393 231.6C314.617 231.658 314.83 231.724 315.03 231.797L315.528 233.152L315.469 233.182C315.279 233.011 315.059 232.852 314.81 232.706C314.561 232.559 314.295 232.432 314.012 232.325C313.729 232.217 313.431 232.134 313.118 232.076C312.811 232.012 312.498 231.98 312.181 231.98C311.566 231.98 311.002 232.078 310.489 232.273C309.976 232.464 309.534 232.742 309.163 233.108C308.797 233.475 308.511 233.924 308.306 234.456C308.101 234.988 307.999 235.594 307.999 236.272C307.999 237.02 308.096 237.713 308.292 238.353C308.487 238.992 308.778 239.546 309.163 240.015C309.549 240.484 310.03 240.853 310.606 241.121C311.187 241.385 311.863 241.517 312.635 241.517C312.977 241.517 313.282 241.49 313.55 241.436C313.819 241.382 314.046 241.316 314.232 241.238C314.417 241.155 314.556 241.067 314.649 240.975C314.747 240.877 314.796 240.789 314.796 240.711V240.425C314.796 240.083 314.791 239.788 314.781 239.539C314.771 239.29 314.757 239.075 314.737 238.895C314.717 238.709 314.695 238.55 314.671 238.418C314.647 238.287 314.617 238.165 314.583 238.052V238.023H316.341V238.052C316.312 238.155 316.282 238.277 316.253 238.418C316.229 238.555 316.207 238.719 316.187 238.909C316.168 239.1 316.153 239.324 316.143 239.583C316.133 239.837 316.129 240.132 316.129 240.469V240.77Z" fill="#ECECEC"/>
<path d="M322.584 241.971C322.613 241.868 322.64 241.741 322.665 241.59C322.689 241.438 322.711 241.25 322.731 241.026C322.75 240.801 322.765 240.535 322.775 240.228C322.784 239.915 322.789 239.551 322.789 239.136V234.368C322.789 233.953 322.784 233.592 322.775 233.284C322.765 232.972 322.75 232.703 322.731 232.479C322.711 232.249 322.689 232.059 322.665 231.907C322.64 231.756 322.613 231.629 322.584 231.526V231.497H324.335V231.526C324.305 231.629 324.276 231.756 324.247 231.907C324.222 232.059 324.2 232.249 324.181 232.479C324.166 232.703 324.152 232.972 324.137 233.284C324.127 233.592 324.122 233.953 324.122 234.368V239.136C324.122 239.551 324.127 239.915 324.137 240.228C324.152 240.535 324.166 240.801 324.181 241.026C324.2 241.25 324.222 241.438 324.247 241.59C324.276 241.741 324.305 241.868 324.335 241.971V242H322.584V241.971Z" fill="#ECECEC"/>
<path d="M331.413 231.497L338.957 239.524V234.368C338.957 233.953 338.952 233.592 338.942 233.284C338.932 232.972 338.918 232.703 338.898 232.479C338.879 232.249 338.854 232.059 338.825 231.907C338.8 231.756 338.774 231.629 338.744 231.526V231.497H340.048V231.526C340.019 231.629 339.992 231.756 339.967 231.907C339.943 232.059 339.921 232.249 339.902 232.479C339.882 232.703 339.867 232.972 339.858 233.284C339.848 233.592 339.843 233.953 339.843 234.368V242.146H339.587L332.043 234.126V239.136C332.043 239.551 332.048 239.915 332.057 240.228C332.067 240.535 332.082 240.801 332.101 241.026C332.121 241.25 332.143 241.438 332.167 241.59C332.192 241.741 332.218 241.868 332.248 241.971V242H330.944V241.971C330.973 241.868 331 241.741 331.025 241.59C331.054 241.438 331.078 241.25 331.098 241.026C331.117 240.801 331.132 240.535 331.142 240.228C331.152 239.915 331.156 239.551 331.156 239.136V234.368C331.156 233.953 331.152 233.592 331.142 233.284C331.132 232.972 331.117 232.703 331.098 232.479C331.078 232.249 331.054 232.059 331.025 231.907C331 231.756 330.973 231.629 330.944 231.526V231.497H331.413Z" fill="#ECECEC"/>
<path d="M346.591 231.497C347.202 231.497 347.807 231.495 348.408 231.49C349.013 231.485 349.568 231.48 350.07 231.475C350.573 231.465 351.003 231.453 351.36 231.438C351.716 231.424 351.958 231.404 352.085 231.38L351.726 232.354C351.565 232.31 351.377 232.271 351.162 232.237C350.976 232.208 350.749 232.181 350.481 232.156C350.217 232.127 349.912 232.112 349.565 232.112C349.448 232.112 349.306 232.117 349.14 232.127C348.979 232.132 348.823 232.139 348.672 232.149C348.496 232.159 348.318 232.168 348.137 232.178V236.177C348.64 236.172 349.094 236.158 349.499 236.133C349.904 236.109 350.249 236.084 350.532 236.06C350.864 236.031 351.157 235.997 351.411 235.958L351.184 237.02C350.847 236.976 350.503 236.934 350.151 236.895C349.848 236.861 349.519 236.832 349.162 236.807C348.806 236.778 348.464 236.763 348.137 236.763V241.355C348.713 241.355 349.243 241.331 349.726 241.282C350.21 241.233 350.632 241.177 350.993 241.114C351.413 241.045 351.797 240.965 352.143 240.872L351.931 242.059C351.872 242.054 351.784 242.049 351.667 242.044C351.55 242.039 351.418 242.034 351.272 242.029C351.13 242.024 350.979 242.02 350.818 242.015C350.661 242.015 350.512 242.012 350.371 242.007C350.229 242.007 350.102 242.005 349.99 242C349.883 242 349.804 242 349.756 242H346.591V241.971C346.621 241.868 346.648 241.741 346.672 241.59C346.701 241.438 346.726 241.25 346.745 241.026C346.765 240.801 346.779 240.535 346.789 240.228C346.799 239.915 346.804 239.551 346.804 239.136V234.368C346.804 233.953 346.799 233.592 346.789 233.284C346.779 232.972 346.765 232.703 346.745 232.479C346.726 232.249 346.701 232.059 346.672 231.907C346.648 231.756 346.621 231.629 346.591 231.526V231.497Z" fill="#ECECEC"/>
<path d="M366.941 233.108L366.875 233.138C366.494 232.786 366.035 232.505 365.498 232.295C364.966 232.085 364.38 231.98 363.74 231.98C363.125 231.98 362.561 232.078 362.049 232.273C361.536 232.464 361.094 232.742 360.723 233.108C360.357 233.475 360.071 233.924 359.866 234.456C359.661 234.988 359.558 235.594 359.558 236.272C359.558 237.02 359.656 237.718 359.851 238.367C360.047 239.012 360.337 239.571 360.723 240.044C361.109 240.518 361.59 240.892 362.166 241.165C362.747 241.434 363.423 241.568 364.195 241.568C364.473 241.568 364.751 241.539 365.029 241.48C365.308 241.421 365.574 241.336 365.828 241.224C366.087 241.106 366.328 240.967 366.553 240.806C366.782 240.64 366.99 240.452 367.175 240.242L367.256 240.293L366.67 241.788C366.304 241.929 365.899 242.037 365.454 242.11C365.015 242.188 364.57 242.227 364.121 242.227C363.218 242.227 362.39 242.098 361.638 241.839C360.891 241.575 360.247 241.204 359.705 240.726C359.168 240.247 358.748 239.673 358.445 239.004C358.147 238.331 357.998 237.583 357.998 236.763C357.998 236.299 358.057 235.843 358.174 235.394C358.296 234.944 358.472 234.517 358.701 234.112C358.931 233.707 359.214 233.335 359.551 232.999C359.888 232.657 360.271 232.361 360.701 232.112C361.135 231.863 361.612 231.67 362.129 231.534C362.652 231.392 363.216 231.321 363.821 231.321C364.763 231.321 365.637 231.465 366.443 231.753L366.941 233.108Z" fill="#ECECEC"/>
<path d="M377.886 231.321C378.702 231.321 379.454 231.456 380.142 231.724C380.836 231.988 381.434 232.361 381.937 232.845C382.44 233.323 382.833 233.899 383.116 234.573C383.399 235.247 383.541 235.992 383.541 236.807C383.541 237.271 383.487 237.728 383.38 238.177C383.272 238.626 383.113 239.051 382.904 239.451C382.698 239.852 382.445 240.223 382.142 240.564C381.839 240.901 381.492 241.194 381.102 241.443C380.716 241.688 380.289 241.878 379.82 242.015C379.351 242.156 378.846 242.227 378.304 242.227C377.488 242.227 376.734 242.098 376.041 241.839C375.352 241.575 374.757 241.204 374.254 240.726C373.751 240.247 373.358 239.673 373.074 239.004C372.791 238.331 372.65 237.583 372.65 236.763C372.65 236.299 372.703 235.843 372.811 235.394C372.918 234.944 373.074 234.517 373.279 234.112C373.489 233.707 373.743 233.335 374.041 232.999C374.344 232.657 374.688 232.361 375.074 232.112C375.465 231.863 375.894 231.67 376.363 231.534C376.837 231.392 377.344 231.321 377.886 231.321ZM378.304 241.568C378.846 241.568 379.341 241.47 379.791 241.275C380.24 241.08 380.626 240.796 380.948 240.425C381.275 240.054 381.529 239.603 381.71 239.07C381.89 238.533 381.981 237.925 381.981 237.247C381.981 236.495 381.893 235.799 381.717 235.159C381.546 234.515 381.29 233.958 380.948 233.489C380.606 233.016 380.179 232.647 379.666 232.383C379.158 232.115 378.565 231.98 377.886 231.98C377.344 231.98 376.849 232.078 376.4 232.273C375.95 232.464 375.562 232.742 375.235 233.108C374.913 233.475 374.661 233.924 374.481 234.456C374.3 234.988 374.21 235.594 374.21 236.272C374.21 237.02 374.295 237.718 374.466 238.367C374.637 239.012 374.893 239.571 375.235 240.044C375.577 240.518 376.004 240.892 376.517 241.165C377.029 241.434 377.625 241.568 378.304 241.568Z" fill="#ECECEC"/>
<path d="M391.241 241.355C391.818 241.355 392.347 241.331 392.831 241.282C393.314 241.233 393.737 241.177 394.098 241.114C394.518 241.045 394.901 240.965 395.248 240.872L395.035 242.059C394.977 242.054 394.889 242.049 394.772 242.044C394.654 242.039 394.523 242.034 394.376 242.029C394.235 242.024 394.083 242.02 393.922 242.015C393.766 242.015 393.617 242.012 393.475 242.007C393.334 242.007 393.207 242.005 393.094 242C392.987 242 392.909 242 392.86 242H389.696V241.971C389.725 241.868 389.752 241.741 389.777 241.59C389.806 241.438 389.83 241.25 389.85 241.026C389.869 240.801 389.884 240.535 389.894 240.228C389.904 239.915 389.908 239.551 389.908 239.136V234.368C389.908 233.953 389.904 233.592 389.894 233.284C389.884 232.972 389.869 232.703 389.85 232.479C389.83 232.249 389.806 232.059 389.777 231.907C389.752 231.756 389.725 231.629 389.696 231.526V231.497H391.454V231.526C391.424 231.629 391.395 231.756 391.366 231.907C391.341 232.059 391.32 232.249 391.3 232.479C391.285 232.703 391.271 232.972 391.256 233.284C391.246 233.592 391.241 233.953 391.241 234.368V241.355Z" fill="#ECECEC"/>
<path d="M405.885 231.321C406.701 231.321 407.453 231.456 408.141 231.724C408.835 231.988 409.433 232.361 409.936 232.845C410.439 233.323 410.832 233.899 411.115 234.573C411.398 235.247 411.54 235.992 411.54 236.807C411.54 237.271 411.486 237.728 411.379 238.177C411.271 238.626 411.112 239.051 410.903 239.451C410.697 239.852 410.444 240.223 410.141 240.564C409.838 240.901 409.491 241.194 409.101 241.443C408.715 241.688 408.288 241.878 407.819 242.015C407.35 242.156 406.845 242.227 406.303 242.227C405.487 242.227 404.733 242.098 404.04 241.839C403.351 241.575 402.756 241.204 402.253 240.726C401.75 240.247 401.357 239.673 401.073 239.004C400.79 238.331 400.649 237.583 400.649 236.763C400.649 236.299 400.702 235.843 400.81 235.394C400.917 234.944 401.073 234.517 401.279 234.112C401.488 233.707 401.742 233.335 402.04 232.999C402.343 232.657 402.687 232.361 403.073 232.112C403.464 231.863 403.893 231.67 404.362 231.534C404.836 231.392 405.343 231.321 405.885 231.321ZM406.303 241.568C406.845 241.568 407.341 241.47 407.79 241.275C408.239 241.08 408.625 240.796 408.947 240.425C409.274 240.054 409.528 239.603 409.709 239.07C409.889 238.533 409.98 237.925 409.98 237.247C409.98 236.495 409.892 235.799 409.716 235.159C409.545 234.515 409.289 233.958 408.947 233.489C408.605 233.016 408.178 232.647 407.665 232.383C407.157 232.115 406.564 231.98 405.885 231.98C405.343 231.98 404.848 232.078 404.399 232.273C403.949 232.464 403.561 232.742 403.234 233.108C402.912 233.475 402.66 233.924 402.48 234.456C402.299 234.988 402.209 235.594 402.209 236.272C402.209 237.02 402.294 237.718 402.465 238.367C402.636 239.012 402.892 239.571 403.234 240.044C403.576 240.518 404.003 240.892 404.516 241.165C405.029 241.434 405.624 241.568 406.303 241.568Z" fill="#ECECEC"/>
<path d="M426.938 240.77C426.938 240.823 426.931 240.879 426.916 240.938C426.906 240.997 426.88 241.045 426.836 241.084C426.616 241.25 426.377 241.404 426.118 241.546C425.864 241.683 425.588 241.802 425.29 241.905C424.992 242.007 424.67 242.085 424.323 242.139C423.982 242.198 423.613 242.227 423.217 242.227C422.329 242.227 421.518 242.098 420.786 241.839C420.053 241.575 419.424 241.204 418.896 240.726C418.374 240.247 417.968 239.673 417.68 239.004C417.392 238.331 417.248 237.583 417.248 236.763C417.248 236.299 417.307 235.843 417.424 235.394C417.546 234.944 417.722 234.517 417.951 234.112C418.181 233.707 418.464 233.335 418.801 232.999C419.138 232.657 419.521 232.361 419.951 232.112C420.385 231.863 420.862 231.67 421.379 231.534C421.902 231.392 422.466 231.321 423.071 231.321C423.305 231.321 423.545 231.333 423.789 231.358C424.033 231.377 424.275 231.409 424.514 231.453C424.753 231.492 424.983 231.541 425.202 231.6C425.427 231.658 425.639 231.724 425.84 231.797L426.338 233.152L426.279 233.182C426.089 233.011 425.869 232.852 425.62 232.706C425.371 232.559 425.105 232.432 424.821 232.325C424.538 232.217 424.24 232.134 423.928 232.076C423.62 232.012 423.308 231.98 422.99 231.98C422.375 231.98 421.811 232.078 421.299 232.273C420.786 232.464 420.344 232.742 419.973 233.108C419.607 233.475 419.321 233.924 419.116 234.456C418.911 234.988 418.808 235.594 418.808 236.272C418.808 237.02 418.906 237.713 419.101 238.353C419.297 238.992 419.587 239.546 419.973 240.015C420.359 240.484 420.84 240.853 421.416 241.121C421.997 241.385 422.673 241.517 423.445 241.517C423.786 241.517 424.091 241.49 424.36 241.436C424.629 241.382 424.856 241.316 425.041 241.238C425.227 241.155 425.366 241.067 425.459 240.975C425.556 240.877 425.605 240.789 425.605 240.711V240.425C425.605 240.083 425.6 239.788 425.591 239.539C425.581 239.29 425.566 239.075 425.547 238.895C425.527 238.709 425.505 238.55 425.481 238.418C425.456 238.287 425.427 238.165 425.393 238.052V238.023H427.151V238.052C427.121 238.155 427.092 238.277 427.063 238.418C427.038 238.555 427.016 238.719 426.997 238.909C426.977 239.1 426.963 239.324 426.953 239.583C426.943 239.837 426.938 240.132 426.938 240.469V240.77Z" fill="#ECECEC"/>
<path d="M433.394 241.971C433.423 241.868 433.45 241.741 433.474 241.59C433.499 241.438 433.521 241.25 433.54 241.026C433.56 240.801 433.574 240.535 433.584 240.228C433.594 239.915 433.599 239.551 433.599 239.136V234.368C433.599 233.953 433.594 233.592 433.584 233.284C433.574 232.972 433.56 232.703 433.54 232.479C433.521 232.249 433.499 232.059 433.474 231.907C433.45 231.756 433.423 231.629 433.394 231.526V231.497H435.144V231.526C435.115 231.629 435.086 231.756 435.056 231.907C435.032 232.059 435.01 232.249 434.99 232.479C434.976 232.703 434.961 232.972 434.946 233.284C434.937 233.592 434.932 233.953 434.932 234.368V239.136C434.932 239.551 434.937 239.915 434.946 240.228C434.961 240.535 434.976 240.801 434.99 241.026C435.01 241.25 435.032 241.438 435.056 241.59C435.086 241.741 435.115 241.868 435.144 241.971V242H433.394V241.971Z" fill="#ECECEC"/>
<path d="M441.812 231.497C442.423 231.497 443.028 231.495 443.629 231.49C444.234 231.485 444.788 231.48 445.291 231.475C445.794 231.465 446.224 231.453 446.58 231.438C446.937 231.424 447.178 231.404 447.305 231.38L446.946 232.354C446.785 232.31 446.597 232.271 446.383 232.237C446.197 232.208 445.97 232.181 445.701 232.156C445.438 232.127 445.133 232.112 444.786 232.112C444.669 232.112 444.527 232.117 444.361 232.127C444.2 232.132 444.044 232.139 443.892 232.149C443.716 232.159 443.538 232.168 443.358 232.178V236.177C443.861 236.172 444.315 236.158 444.72 236.133C445.125 236.109 445.469 236.084 445.753 236.06C446.085 236.031 446.378 235.997 446.632 235.958L446.404 237.02C446.068 236.976 445.723 236.934 445.372 236.895C445.069 236.861 444.739 236.832 444.383 236.807C444.027 236.778 443.685 236.763 443.358 236.763V241.355C443.934 241.355 444.464 241.331 444.947 241.282C445.43 241.233 445.853 241.177 446.214 241.114C446.634 241.045 447.017 240.965 447.364 240.872L447.152 242.059C447.093 242.054 447.005 242.049 446.888 242.044C446.771 242.039 446.639 242.034 446.492 242.029C446.351 242.024 446.199 242.02 446.038 242.015C445.882 242.015 445.733 242.012 445.591 242.007C445.45 242.007 445.323 242.005 445.211 242C445.103 242 445.025 242 444.976 242H441.812V241.971C441.841 241.868 441.868 241.741 441.893 241.59C441.922 241.438 441.946 241.25 441.966 241.026C441.986 240.801 442 240.535 442.01 240.228C442.02 239.915 442.025 239.551 442.025 239.136V234.368C442.025 233.953 442.02 233.592 442.01 233.284C442 232.972 441.986 232.703 441.966 232.479C441.946 232.249 441.922 232.059 441.893 231.907C441.868 231.756 441.841 231.629 441.812 231.526V231.497Z" fill="#ECECEC"/>
<path d="M462.663 231.497C463.273 231.497 463.879 231.495 464.479 231.49C465.085 231.485 465.639 231.48 466.142 231.475C466.645 231.465 467.074 231.453 467.431 231.438C467.787 231.424 468.029 231.404 468.156 231.38L467.797 232.354C467.636 232.31 467.448 232.271 467.233 232.237C467.048 232.208 466.82 232.181 466.552 232.156C466.288 232.127 465.983 232.112 465.636 232.112C465.519 232.112 465.378 232.117 465.212 232.127C465.05 232.132 464.894 232.139 464.743 232.149C464.567 232.159 464.389 232.168 464.208 232.178V236.177C464.711 236.172 465.165 236.158 465.57 236.133C465.976 236.109 466.32 236.084 466.603 236.06C466.935 236.031 467.228 235.997 467.482 235.958L467.255 237.02C466.918 236.976 466.574 236.934 466.222 236.895C465.92 236.861 465.59 236.832 465.234 236.807C464.877 236.778 464.535 236.763 464.208 236.763V241.355C464.784 241.355 465.314 241.331 465.798 241.282C466.281 241.233 466.703 241.177 467.065 241.114C467.485 241.045 467.868 240.965 468.215 240.872L468.002 242.059C467.944 242.054 467.856 242.049 467.738 242.044C467.621 242.039 467.489 242.034 467.343 242.029C467.201 242.024 467.05 242.02 466.889 242.015C466.733 242.015 466.584 242.012 466.442 242.007C466.3 242.007 466.174 242.005 466.061 242C465.954 242 465.876 242 465.827 242H462.663V241.971C462.692 241.868 462.719 241.741 462.743 241.59C462.773 241.438 462.797 241.25 462.817 241.026C462.836 240.801 462.851 240.535 462.861 240.228C462.87 239.915 462.875 239.551 462.875 239.136V234.368C462.875 233.953 462.87 233.592 462.861 233.284C462.851 232.972 462.836 232.703 462.817 232.479C462.797 232.249 462.773 232.059 462.743 231.907C462.719 231.756 462.692 231.629 462.663 231.526V231.497Z" fill="#ECECEC"/>
<path d="M478.896 233.167H478.735C478.696 233.055 478.633 232.928 478.545 232.786C478.462 232.645 478.349 232.513 478.208 232.391C478.071 232.264 477.903 232.159 477.702 232.076C477.507 231.993 477.275 231.951 477.007 231.951C476.767 231.951 476.555 231.988 476.369 232.061C476.184 232.134 476.028 232.237 475.901 232.369C475.779 232.5 475.686 232.657 475.622 232.837C475.559 233.018 475.527 233.218 475.527 233.438C475.527 233.79 475.625 234.126 475.82 234.449C476.02 234.766 476.269 235.081 476.567 235.394C476.865 235.706 477.187 236.019 477.534 236.331C477.881 236.644 478.203 236.968 478.501 237.305C478.799 237.642 479.045 237.996 479.24 238.367C479.441 238.733 479.541 239.129 479.541 239.554C479.541 239.871 479.485 240.191 479.372 240.513C479.265 240.831 479.096 241.116 478.867 241.37C478.637 241.624 478.342 241.832 477.981 241.993C477.619 242.149 477.19 242.227 476.692 242.227C476.413 242.227 476.147 242.2 475.893 242.146C475.644 242.098 475.412 242.037 475.197 241.963C474.987 241.885 474.797 241.802 474.626 241.714C474.46 241.626 474.323 241.546 474.216 241.473L474.384 239.854H474.568C474.621 240.083 474.709 240.303 474.831 240.513C474.953 240.718 475.102 240.901 475.278 241.062C475.459 241.219 475.664 241.346 475.893 241.443C476.123 241.536 476.374 241.583 476.648 241.583C476.897 241.583 477.119 241.546 477.314 241.473C477.514 241.395 477.685 241.29 477.827 241.158C477.968 241.021 478.076 240.86 478.149 240.674C478.227 240.489 478.266 240.286 478.266 240.066C478.266 239.759 478.21 239.476 478.098 239.217C477.986 238.953 477.837 238.704 477.651 238.47C477.47 238.235 477.263 238.008 477.029 237.789C476.799 237.569 476.562 237.349 476.318 237.129C476.074 236.905 475.835 236.675 475.6 236.441C475.371 236.207 475.163 235.958 474.978 235.694C474.797 235.425 474.651 235.14 474.538 234.837C474.426 234.529 474.37 234.192 474.37 233.826C474.37 233.44 474.443 233.094 474.59 232.786C474.741 232.474 474.939 232.208 475.183 231.988C475.432 231.768 475.713 231.6 476.025 231.482C476.338 231.365 476.66 231.307 476.992 231.307C477.236 231.307 477.461 231.326 477.666 231.365C477.871 231.404 478.054 231.451 478.215 231.504C478.381 231.558 478.525 231.612 478.647 231.666C478.769 231.719 478.869 231.763 478.947 231.797L478.896 233.167Z" fill="#ECECEC"/>
<path d="M488.604 232.142C488.028 232.142 487.508 232.168 487.044 232.222C486.58 232.271 486.179 232.325 485.842 232.383C485.452 232.457 485.103 232.537 484.795 232.625L485.008 231.438C485.066 231.443 485.154 231.448 485.271 231.453C485.388 231.458 485.518 231.463 485.659 231.468C485.806 231.473 485.957 231.478 486.113 231.482C486.275 231.482 486.426 231.485 486.568 231.49C486.709 231.49 486.834 231.492 486.941 231.497C487.053 231.497 487.134 231.497 487.183 231.497H491.365C491.414 231.497 491.492 231.497 491.599 231.497C491.712 231.492 491.839 231.49 491.98 231.49C492.122 231.485 492.271 231.482 492.427 231.482C492.588 231.478 492.739 231.473 492.881 231.468C493.028 231.463 493.159 231.458 493.277 231.453C493.394 231.448 493.482 231.443 493.54 231.438L493.753 232.625C493.44 232.537 493.089 232.457 492.698 232.383C492.361 232.325 491.961 232.271 491.497 232.222C491.033 232.168 490.513 232.142 489.937 232.142V239.136C489.937 239.551 489.942 239.915 489.951 240.228C489.966 240.535 489.981 240.801 489.995 241.026C490.015 241.25 490.037 241.438 490.061 241.59C490.091 241.741 490.12 241.868 490.149 241.971V242H488.399V241.971C488.428 241.868 488.455 241.741 488.479 241.59C488.504 241.438 488.526 241.25 488.545 241.026C488.565 240.801 488.579 240.535 488.589 240.228C488.599 239.915 488.604 239.551 488.604 239.136V232.142Z" fill="#ECECEC"/>
<path d="M499.307 231.497C499.918 231.497 500.523 231.495 501.124 231.49C501.729 231.485 502.283 231.48 502.786 231.475C503.289 231.465 503.719 231.453 504.075 231.438C504.432 231.424 504.674 231.404 504.8 231.38L504.442 232.354C504.28 232.31 504.092 232.271 503.878 232.237C503.692 232.208 503.465 232.181 503.196 232.156C502.933 232.127 502.628 232.112 502.281 232.112C502.164 232.112 502.022 232.117 501.856 232.127C501.695 232.132 501.539 232.139 501.387 232.149C501.212 232.159 501.033 232.168 500.853 232.178V236.177C501.356 236.172 501.81 236.158 502.215 236.133C502.62 236.109 502.965 236.084 503.248 236.06C503.58 236.031 503.873 235.997 504.127 235.958L503.9 237.02C503.563 236.976 503.218 236.934 502.867 236.895C502.564 236.861 502.235 236.832 501.878 236.807C501.522 236.778 501.18 236.763 500.853 236.763V241.355C501.429 241.355 501.959 241.331 502.442 241.282C502.925 241.233 503.348 241.177 503.709 241.114C504.129 241.045 504.512 240.965 504.859 240.872L504.647 242.059C504.588 242.054 504.5 242.049 504.383 242.044C504.266 242.039 504.134 242.034 503.987 242.029C503.846 242.024 503.695 242.02 503.533 242.015C503.377 242.015 503.228 242.012 503.087 242.007C502.945 242.007 502.818 242.005 502.706 242C502.598 242 502.52 242 502.471 242H499.307V241.971C499.337 241.868 499.363 241.741 499.388 241.59C499.417 241.438 499.442 241.25 499.461 241.026C499.481 240.801 499.495 240.535 499.505 240.228C499.515 239.915 499.52 239.551 499.52 239.136V234.368C499.52 233.953 499.515 233.592 499.505 233.284C499.495 232.972 499.481 232.703 499.461 232.479C499.442 232.249 499.417 232.059 499.388 231.907C499.363 231.756 499.337 231.629 499.307 231.526V231.497Z" fill="#ECECEC"/>
<path d="M513.922 232.142C513.346 232.142 512.826 232.168 512.362 232.222C511.898 232.271 511.498 232.325 511.161 232.383C510.77 232.457 510.421 232.537 510.113 232.625L510.326 231.438C510.384 231.443 510.472 231.448 510.59 231.453C510.707 231.458 510.836 231.463 510.978 231.468C511.124 231.473 511.276 231.478 511.432 231.482C511.593 231.482 511.744 231.485 511.886 231.49C512.028 231.49 512.152 231.492 512.259 231.497C512.372 231.497 512.452 231.497 512.501 231.497H516.683C516.732 231.497 516.81 231.497 516.918 231.497C517.03 231.492 517.157 231.49 517.299 231.49C517.44 231.485 517.589 231.482 517.745 231.482C517.906 231.478 518.058 231.473 518.199 231.468C518.346 231.463 518.478 231.458 518.595 231.453C518.712 231.448 518.8 231.443 518.859 231.438L519.071 232.625C518.758 232.537 518.407 232.457 518.016 232.383C517.679 232.325 517.279 232.271 516.815 232.222C516.351 232.168 515.831 232.142 515.255 232.142V239.136C515.255 239.551 515.26 239.915 515.27 240.228C515.284 240.535 515.299 240.801 515.314 241.026C515.333 241.25 515.355 241.438 515.38 241.59C515.409 241.741 515.438 241.868 515.467 241.971V242H513.717V241.971C513.746 241.868 513.773 241.741 513.798 241.59C513.822 241.438 513.844 241.25 513.863 241.026C513.883 240.801 513.898 240.535 513.907 240.228C513.917 239.915 513.922 239.551 513.922 239.136V232.142Z" fill="#ECECEC"/>
<path d="M524.692 241.971C524.721 241.868 524.748 241.741 524.772 241.59C524.797 241.438 524.819 241.25 524.838 241.026C524.858 240.801 524.872 240.535 524.882 240.228C524.892 239.915 524.897 239.551 524.897 239.136V234.368C524.897 233.953 524.892 233.592 524.882 233.284C524.872 232.972 524.858 232.703 524.838 232.479C524.819 232.249 524.797 232.059 524.772 231.907C524.748 231.756 524.721 231.629 524.692 231.526V231.497H526.442V231.526C526.413 231.629 526.383 231.756 526.354 231.907C526.33 232.059 526.308 232.249 526.288 232.479C526.274 232.703 526.259 232.972 526.244 233.284C526.235 233.592 526.23 233.953 526.23 234.368V239.136C526.23 239.551 526.235 239.915 526.244 240.228C526.259 240.535 526.274 240.801 526.288 241.026C526.308 241.25 526.33 241.438 526.354 241.59C526.383 241.741 526.413 241.868 526.442 241.971V242H524.692V241.971Z" fill="#ECECEC"/>
<path d="M541.606 233.108L541.54 233.138C541.159 232.786 540.7 232.505 540.163 232.295C539.631 232.085 539.045 231.98 538.405 231.98C537.79 231.98 537.226 232.078 536.714 232.273C536.201 232.464 535.759 232.742 535.388 233.108C535.022 233.475 534.736 233.924 534.531 234.456C534.326 234.988 534.223 235.594 534.223 236.272C534.223 237.02 534.321 237.718 534.516 238.367C534.712 239.012 535.002 239.571 535.388 240.044C535.774 240.518 536.255 240.892 536.831 241.165C537.412 241.434 538.088 241.568 538.86 241.568C539.138 241.568 539.416 241.539 539.695 241.48C539.973 241.421 540.239 241.336 540.493 241.224C540.752 241.106 540.993 240.967 541.218 240.806C541.447 240.64 541.655 240.452 541.841 240.242L541.921 240.293L541.335 241.788C540.969 241.929 540.564 242.037 540.119 242.11C539.68 242.188 539.236 242.227 538.786 242.227C537.883 242.227 537.055 242.098 536.303 241.839C535.556 241.575 534.912 241.204 534.37 240.726C533.833 240.247 533.413 239.673 533.11 239.004C532.812 238.331 532.663 237.583 532.663 236.763C532.663 236.299 532.722 235.843 532.839 235.394C532.961 234.944 533.137 234.517 533.366 234.112C533.596 233.707 533.879 233.335 534.216 232.999C534.553 232.657 534.936 232.361 535.366 232.112C535.8 231.863 536.277 231.67 536.794 231.534C537.317 231.392 537.881 231.321 538.486 231.321C539.428 231.321 540.302 231.465 541.108 231.753L541.606 233.108Z" fill="#ECECEC"/>
<path d="M555.174 242V241.971C555.183 241.946 555.191 241.91 555.195 241.861C555.2 241.812 555.203 241.768 555.203 241.729C555.203 241.578 555.181 241.412 555.137 241.231C555.098 241.045 555.02 240.816 554.903 240.542L554.016 238.55C553.743 238.541 553.379 238.536 552.925 238.536C552.471 238.536 551.98 238.536 551.453 238.536C551.067 238.536 550.694 238.536 550.332 238.536C549.976 238.536 549.654 238.541 549.365 238.55L548.523 240.484C548.45 240.665 548.372 240.862 548.289 241.077C548.206 241.292 548.164 241.509 548.164 241.729C548.164 241.792 548.169 241.846 548.179 241.89C548.189 241.929 548.198 241.956 548.208 241.971V242H546.714V241.971C546.802 241.878 546.912 241.714 547.044 241.48C547.175 241.241 547.32 240.943 547.476 240.586L551.673 231.277H552.258L556.236 240.228C556.328 240.438 556.424 240.643 556.521 240.843C556.624 241.038 556.719 241.214 556.807 241.37C556.895 241.526 556.973 241.658 557.041 241.766C557.11 241.873 557.156 241.941 557.18 241.971V242H555.174ZM550.427 237.906C550.711 237.906 551.001 237.906 551.299 237.906C551.597 237.901 551.887 237.898 552.171 237.898C552.459 237.894 552.735 237.891 552.998 237.891C553.262 237.886 553.501 237.881 553.716 237.876L551.658 233.226L549.636 237.906H550.427ZM551.944 230.311C551.616 230.311 551.328 230.254 551.079 230.142C550.835 230.03 550.62 229.874 550.435 229.673C550.249 229.468 550.091 229.227 549.959 228.948C549.832 228.665 549.724 228.355 549.636 228.018L549.922 227.945C549.976 228.091 550.044 228.248 550.127 228.414C550.215 228.575 550.335 228.726 550.486 228.868C550.637 229.004 550.83 229.119 551.065 229.212C551.299 229.305 551.592 229.351 551.944 229.351C552.295 229.351 552.588 229.305 552.822 229.212C553.057 229.119 553.25 229.004 553.401 228.868C553.552 228.726 553.67 228.575 553.753 228.414C553.841 228.248 553.911 228.091 553.965 227.945L554.251 228.018C554.163 228.355 554.053 228.665 553.921 228.948C553.794 229.227 553.638 229.468 553.452 229.673C553.267 229.874 553.049 230.03 552.8 230.142C552.556 230.254 552.271 230.311 551.944 230.311Z" fill="#ECECEC"/>
</g>
<defs>
<clipPath id="clip0_25_2">
<rect width="625" height="410" fill="white"/>
</clipPath>
</defs>
</svg>
