<svg xmlns="http://www.w3.org/2000/svg" xmlns:xlink="http://www.w3.org/1999/xlink" xml:space="preserve" version="1.1" style="shape-rendering:geometricPrecision; text-rendering:geometricPrecision; image-rendering:optimizeQuality; fill-rule:evenodd; clip-rule:evenodd" viewBox="6638 6935 16424 7130.59">
 <defs>
  <style type="text/css">
   
    .fil0 {fill:none}
    .fil2 {fill:#148ECE;fill-rule:nonzero}
    .fil1 {fill:#39AC62;fill-rule:nonzero}
  
  </style>
 </defs>
 <g id="Layer_x0020_1">
  <metadata id="CorelCorpID_0Corel-Layer"/>
  <rect class="fil0" width="29700" height="21000"/>
  <g id="_2375247586656">
   <path class="fil1" d="M18481 8678l-168 333c-162,324 -325,646 -434,864l-12 23 -67 136c-17,34 -31,62 -39,78l-148 296 0 1532 970 0 0 -3238c-1,-30 -27,-53 -57,-52 -19,1 -35,11 -45,28zm246 -876l-201 -68c-7,14 -16,33 -28,57 -151,306 -681,1354 -943,1877 -7,12 -12,24 -19,36l-15 31 -64 128c-18,36 -31,64 -41,83l-501 1002c-112,226 -387,318 -613,205 -89,-44 -161,-116 -205,-205l-632 -1273c-26,-56 -93,-81 -149,-55 -41,19 -67,60 -66,105l0 2228 -1041 0 0 -3829c0,-385 313,-698 698,-698 266,0 508,151 626,388l789 1590c51,104 177,147 281,96 41,-21 74,-54 95,-96l731 -1474 126 -258c33,-69 67,-137 100,-206l59 -120 -170 -108 887 -303c56,162 112,324 168,492l128 375zm2839 2831c165,-172 247,-418 247,-738 0,-321 -80,-567 -240,-739 -308,-329 -824,-346 -1153,-38 -12,11 -23,23 -35,35 -157,169 -236,417 -236,742 0,320 78,566 233,738 147,169 361,264 585,259 227,3 446,-91 599,-259zm-1656 1069c-310,-164 -566,-413 -739,-717 -179,-311 -269,-674 -269,-1090 0,-411 91,-773 273,-1087 175,-306 433,-557 745,-721 669,-334 1455,-334 2124,0 312,164 571,414 745,721 182,313 273,675 273,1086 0,411 -92,774 -277,1087 -177,307 -439,557 -753,721 -329,170 -695,256 -1065,251 -392,0 -744,-84 -1057,-251zm-6251 -3809l0 4060 -1226 0 0 -603c-131,183 -305,329 -506,427 -220,109 -463,165 -708,161 -306,0 -577,-68 -811,-204 -236,-139 -425,-345 -543,-592 -129,-258 -194,-561 -194,-910l0 -2339 1219 0 0 2173c0,268 70,476 208,624 139,148 326,222 560,222 239,0 428,-74 566,-222 139,-148 209,-356 208,-624l0 -2173 1227 0zm-5257 148c218,-128 466,-194 717,-191l0 1299 -336 0c-307,0 -536,65 -689,197 -153,131 -229,362 -229,693l0 1900 -1227 0 0 -4046 1227 0 0 669c136,-214 320,-392 537,-521z"/>
   <path class="fil2" d="M7209 13645l179 -345 134 0 -251 462 0 292 -123 0 0 -288 -251 -466 134 0 178 345zm15594 410l-123 0 0 -338 -348 0 0 338 -123 0 0 -755 123 0 0 308 348 0 0 -308 123 0 0 755zm-1291 0l-123 0 0 -648 -222 0 0 -107 567 0 0 106 -222 0 0 649zm-958 -316l-70 -205c-6,-14 -13,-35 -22,-65 -9,-29 -15,-51 -19,-65 -10,47 -24,94 -40,139l-69 196 220 0zm108 316l-75 -210 -289 0 -73 210 -130 0 282 -757 135 0 282 757 -132 0zm-1354 -385l66 0c48,3 97,-8 139,-33 31,-25 47,-64 44,-103 3,-37 -12,-73 -39,-97 -37,-24 -80,-35 -123,-31l-86 0 -1 264zm376 -141c4,69 -24,136 -77,181 -52,42 -125,62 -220,62l-79 0 0 282 -123 0 0 -754 216 0c94,0 165,20 211,58 50,43 77,106 72,171zm-2064 526l0 -755 123 0 0 649 319 0 0 106 -442 0zm-697 -316l-71 -205c-5,-14 -13,-35 -22,-65 -9,-29 -15,-51 -19,-65 -10,47 -24,94 -40,139l-68 196 220 0zm107 316l-75 -210 -289 0 -74 210 -130 0 282 -757 134 0 282 757 -130 0zm-1165 0l-123 0 0 -648 -221 0 0 -107 567 0 0 106 -223 0 0 649zm-941 0l0 -755 123 0 0 755 -123 0zm-817 -409l276 0 0 379c-42,14 -86,24 -130,30 -45,7 -90,10 -136,10 -114,0 -202,-34 -264,-102 -62,-67 -92,-162 -92,-286 0,-123 35,-215 105,-285 70,-69 166,-103 288,-103 77,0 153,15 224,46l-43 102c-58,-27 -121,-41 -185,-42 -72,-3 -141,24 -191,76 -49,58 -74,132 -70,207 0,92 21,163 63,211 47,50 114,76 182,72 43,-1 86,-6 128,-15l0 -195 -156 0 1 -105zm-990 409l0 -755 123 0 0 755 -123 0zm-652 -381c0,-180 -84,-271 -253,-271l-107 0 0 547 88 0c182,1 272,-91 272,-275l0 -1zm130 -4c0,125 -34,220 -103,285 -70,66 -169,99 -299,99l-211 0 0 -754 233 0c120,0 214,33 280,98 67,65 100,155 100,272zm-2158 -18l86 0c44,4 88,-7 125,-31 27,-24 41,-59 39,-95 3,-36 -13,-71 -42,-92 -38,-22 -82,-31 -126,-28l-82 0 0 246zm0 102l0 301 -123 0 0 -755 214 0c97,0 169,19 215,55 49,41 75,102 70,165 0,94 -49,161 -146,201l213 334 -140 0 -180 -301 -123 0zm-675 -454l0 489c1,51 -11,101 -36,146 -24,42 -60,75 -103,96 -51,24 -107,35 -163,34 -79,5 -158,-22 -218,-74 -53,-54 -82,-129 -78,-205l0 -486 124 0 0 478c-5,50 11,99 43,137 36,33 84,49 133,45 116,0 174,-61 174,-183l0 -477 124 0zm-1688 377c0,93 19,163 57,211 87,92 232,96 323,9 3,-3 6,-6 9,-9 37,-47 56,-118 56,-212 0,-94 -18,-164 -56,-210 -40,-50 -101,-76 -165,-72 -64,-4 -126,22 -167,72 -38,48 -57,119 -57,211zm576 0c0,123 -31,218 -92,286 -62,68 -149,102 -261,102 -112,0 -201,-33 -262,-101 -61,-68 -93,-164 -93,-288 0,-124 31,-220 93,-287 61,-67 149,-100 263,-100 113,0 198,34 260,102 61,67 92,163 92,286z"/>
  </g>
 </g>
</svg>